<svg xmlns="http://www.w3.org/2000/svg" viewBox="0 0 133.31 18.58"><defs><style>.cls-1{fill:#fff;}.cls-2{fill:#a7add6;}</style></defs><title>taomedia_1</title><g id="Layer_2" data-name="Layer 2"><g id="Layer_7" data-name="Layer 7"><path class="cls-1" d="M9.25,18.33H4.39v-14H0v-4H13.63v4H9.25Z"/><path class="cls-1" d="M26.61,18.33,25.73,15H19.88L19,18.33H13.63L19.5.27H26l5.94,18.06ZM24.72,11l-.78-3q-.27-1-.66-2.55c-.25-1-.42-1.78-.51-2.23-.07.41-.22,1.1-.43,2.06s-.7,2.85-1.45,5.67Z"/><path class="cls-1" d="M50.08,9.31c0,3-.75,5.33-2.23,6.91s-3.66,2.36-6.52,2.36a8.49,8.49,0,0,1-6.49-2.38q-2.27-2.37-2.26-6.91c0-3,.75-5.28,2.24-6.86S38.5.06,41.35.06s5,.78,6.51,2.35S50.08,6.28,50.08,9.31Zm-12.38,0q0,5.22,3.63,5.22a3.09,3.09,0,0,0,2.73-1.27A6.88,6.88,0,0,0,45,9.31a7,7,0,0,0-.91-4,3.09,3.09,0,0,0-2.7-1.28Q37.71,4.05,37.7,9.31Z"/><path class="cls-2" d="M61.86,18.06,58.18,5.11h-.11c.17,2.2.26,3.92.26,5.14v7.81H54V.07h6.47l3.76,12.78h.09L68,.07h6.49v18H70V10.18c0-.41,0-.87,0-1.37s.07-1.73.16-3.68h-.11L66.48,18.06Z"/><path class="cls-2" d="M88.43,18.06H77.75V.07H88.43V4H82.61V6.8H88v3.91H82.61V14.1h5.82Z"/><path class="cls-2" d="M106.22,8.69c0,3-.82,5.31-2.48,6.94a9.52,9.52,0,0,1-7,2.43H91V.07h6.23a9.38,9.38,0,0,1,6.69,2.22A8.37,8.37,0,0,1,106.22,8.69Zm-5,.17a5.75,5.75,0,0,0-1-3.67,3.63,3.63,0,0,0-3-1.19H95.81V14.08H96.9a3.89,3.89,0,0,0,3.24-1.29A6.21,6.21,0,0,0,101.18,8.86Z"/><path class="cls-2" d="M108.82,18.06V.07h4.88v18Z"/><path class="cls-2" d="M128,18.06l-.89-3.37h-5.84l-.91,3.37H115L120.89,0h6.48l5.94,18.06Zm-1.9-7.35-.77-3c-.18-.65-.4-1.5-.66-2.54s-.43-1.79-.51-2.24c-.08.41-.22,1.1-.44,2.06s-.7,2.85-1.44,5.68Z"/></g></g></svg>