<svg xmlns="http://www.w3.org/2000/svg" viewBox="0 0 64.86 134.79"><title>develop2</title><path d="M33,2.21A1.14,1.14,0,0,0,33.72.78a1.13,1.13,0,1,0-2.15.71A1.14,1.14,0,0,0,33,2.21Z"/><path d="M33,9.14A1.13,1.13,0,1,0,32.29,7,1.13,1.13,0,1,0,33,9.14Z"/><path d="M57.26,30.32a23.83,23.83,0,0,0-7.89.08A25.89,25.89,0,0,0,53.6,15.55h0a.13.13,0,0,0,0-.06v0l0,0a.43.43,0,0,1,0-.05l0,0h0l0,0a.1.1,0,0,0,0,0h0l0,0h0l0,0-.07,0H53a33.25,33.25,0,0,0-10.19,5,23.83,23.83,0,0,0-8.5-14.39,3.22,3.22,0,0,0-.85-.47,1.13,1.13,0,0,0-1.21-1.81A1.12,1.12,0,0,0,31.57,5a1.47,1.47,0,0,0,.14.28,3,3,0,0,0-1.19.57A23.78,23.78,0,0,0,22,20.2a33.3,33.3,0,0,0-10.2-5h-.25l-.06,0,0,0,0,0h0l0,0,0,0h0l0,0,0,.05a449546480176.15,449546480176.15,0,0,0,0,.06s0,0,0,.06h0A26,26,0,0,0,15.49,30.4a23.83,23.83,0,0,0-7.89-.08A15.75,15.75,0,0,0,.15,33.65a.43.43,0,0,0-.09.54s0,0,0,0a.42.42,0,0,0,.54.27,10.43,10.43,0,0,1,8.84,1,21.14,21.14,0,0,1,4.17,3.88,26.62,26.62,0,0,0,3.5,3.46,13.65,13.65,0,0,0,8.27,2.91A12,12,0,0,0,29.57,45c.79,2.78,1.71,4.54,2.39,5a48.78,48.78,0,0,0,2.2,15.46A15,15,0,0,0,35,67.61l-.31.25A15.21,15.21,0,0,1,30.81,70l-2.89-2.18a8.78,8.78,0,0,0-4.15-2.08,3.84,3.84,0,0,0-2.79.86,2.52,2.52,0,0,0-.25,3.74,5.93,5.93,0,0,0,3.93,1.56,16.23,16.23,0,0,0,6-.93l6,4.56L36.2,76c-.32.28-.64.56-1,.82l-.72.57a12.12,12.12,0,0,0-11.36-2.56c-1.93.63-3.81,2.18-3.7,4.23a3.9,3.9,0,0,0,3,3.33,8.57,8.57,0,0,0,4.43-.29,24.74,24.74,0,0,0,7.54-3.61,11.78,11.78,0,0,1,1.27,1.37c2.67,3.37,3.82,8.21,3.16,13.28-.53,4-2,8.1-4.91,13.24-.56,1-1.15,2-1.72,3l-1.15,2h0a68.21,68.21,0,0,1-3.5-7.56c-1.23-3.38-2.33-8.35-.53-12.86.66-1.67,2.12-3.6,4.06-3.53s3.13,1.94,3.33,3.7a12.6,12.6,0,0,1-1.17,5.65.41.41,0,0,0,.25.55.43.43,0,0,0,.55-.25A13.2,13.2,0,0,0,35.3,91c-.24-2.12-1.86-4.37-4.15-4.45S27,88.67,26.26,90.6c-1.89,4.76-.76,10,.52,13.48a67.4,67.4,0,0,0,3.55,7.65l.26.51A46.57,46.57,0,0,0,27.81,118c-1.3,3.34-2.5,8.33-.77,13.07.44,1.19,1.47,3.26,3.49,3.68a3.11,3.11,0,0,0,.69.07,4.33,4.33,0,0,0,3.28-1.67A7.66,7.66,0,0,0,36,129.19c.55-3.89-.29-8.11-2.66-13.27-.56-1.23-1.18-2.46-1.79-3.66.47-.83,1-1.64,1.42-2.46.57-1,1.17-2,1.73-3,2.93-5.24,4.47-9.42,5-13.55a18.64,18.64,0,0,0-3.34-13.93A13.13,13.13,0,0,0,35.16,78l.61-.48,1-.84.66-.56,1.82,1.38A9.4,9.4,0,0,0,42,79.1a3.41,3.41,0,0,0,3.33-.57,2.67,2.67,0,0,0,.82-2.31,3.59,3.59,0,0,0-1.62-2.67,5.51,5.51,0,0,0-5.25.17A11.88,11.88,0,0,0,37.39,75l-5.78-4.37a15.83,15.83,0,0,0,3.58-2.09l.21-.17a5.58,5.58,0,0,0,.51.69,4,4,0,0,0,3.82,1.45A2.9,2.9,0,0,0,41.6,69a2.31,2.31,0,0,0,.1-2c-.6-1.4-2.44-1.77-3.79-1.31a7.33,7.33,0,0,0-2.25,1.35A15.72,15.72,0,0,1,35,65.23a47.81,47.81,0,0,1-2.16-15.17s0,0,.07,0c.68-.46,1.61-2.22,2.41-5a11.91,11.91,0,0,0,4.17.75,13.62,13.62,0,0,0,8.27-2.91,26.7,26.7,0,0,0,3.51-3.46,20.6,20.6,0,0,1,4.17-3.88,10.41,10.41,0,0,1,8.83-1,.43.43,0,0,0,.55-.27v0a.42.42,0,0,0-.08-.54A15.79,15.79,0,0,0,57.26,30.32ZM24.69,71.07a5,5,0,0,1-3.33-1.27,1.72,1.72,0,0,1-.48-1.28,1.76,1.76,0,0,1,.66-1.24,3,3,0,0,1,1.86-.67l.28,0a8.06,8.06,0,0,1,3.73,1.9l2.43,1.84A15.27,15.27,0,0,1,24.69,71.07Zm2,10.21a7.77,7.77,0,0,1-4,.28A3.08,3.08,0,0,1,20.31,79c-.09-1.58,1.54-2.85,3.1-3.36a9.24,9.24,0,0,1,2.92-.45,12.09,12.09,0,0,1,7.45,2.71A24.13,24.13,0,0,1,26.68,81.28Zm5.9,35c2.29,5,3.12,9.08,2.59,12.8a7,7,0,0,1-1.33,3.51,3.38,3.38,0,0,1-3.14,1.3c-1.61-.34-2.48-2.11-2.85-3.14-1.64-4.48-.49-9.25.76-12.46a42.89,42.89,0,0,1,2.45-5.12C31.59,114.19,32.1,115.23,32.58,116.27Zm7.13-41.79a4.63,4.63,0,0,1,4.4-.19,2.71,2.71,0,0,1,1.22,2,1.86,1.86,0,0,1-.55,1.6,2.61,2.61,0,0,1-2.5.38,8.87,8.87,0,0,1-2.52-1.49L38.1,75.53A10.59,10.59,0,0,1,39.71,74.48Zm-1.53-8a2.24,2.24,0,0,1,2.74.84,1.46,1.46,0,0,1-.09,1.25,2,2,0,0,1-1.3,1.06,3.15,3.15,0,0,1-3-1.18,6.26,6.26,0,0,1-.49-.66A7,7,0,0,1,38.18,66.52Zm10.9-37.24-.09,0a.29.29,0,0,0-.21.48c-.21.3-.42.6-.63.88l-1.35.27a.28.28,0,0,0-.22-.45.29.29,0,0,0-.13.54c-.86.2-1.68.41-2.47.66a.21.21,0,0,0-.07-.13l-.24-.19a.69.69,0,0,0-.15-.07.26.26,0,0,0-.24-.15.28.28,0,0,0-.06.56.18.18,0,0,0,.05.07l.12.09-.66.23a.24.24,0,0,0-.21-.1.27.27,0,0,0-.23.13A.24.24,0,0,0,42.1,32h-.05a.28.28,0,0,0-.26.39l-.66.28a.26.26,0,0,0-.26-.2h0a.28.28,0,0,0-.24.42l-.11.06a.28.28,0,0,0-.26-.38h-.07a.25.25,0,0,0-.26-.2.2.2,0,0,0-.11,0l1.42-1.71a.21.21,0,0,0,0,.12v.05a.29.29,0,0,0,.55.1l.08,0,.23-.19a.29.29,0,1,0-.4-.41l-.24.19,0,0s-.05,0-.08.06q.6-.74,1.23-1.47a.29.29,0,1,0,.22-.12.25.25,0,0,0-.18.07L43.46,28a.25.25,0,0,0,.24.15.29.29,0,0,0,.1-.55l1-1.18,1.1-1.32a.26.26,0,0,0,.27.22.28.28,0,0,0,0-.56c2.32-2.77,4.63-5.54,6.57-8A25.29,25.29,0,0,1,49.08,29.28Zm-9.24,3.66h0l.07,0a.25.25,0,0,0,.18.18l-.27.13a.31.31,0,0,0,0-.11v0A.33.33,0,0,0,39.84,32.94ZM52,16.42c-2.3,2.86-5.1,6.19-7.82,9.42l-4,4.84a.28.28,0,0,0-.26-.38.29.29,0,0,0,0,.57l.12,0-1.26,1.52a.25.25,0,0,0-.26-.22.28.28,0,0,0-.26.39.3.3,0,0,0,0,.46l-.3.37a.28.28,0,0,0-.24-.42.29.29,0,0,0-.22.46.27.27,0,0,0-.2-.09.25.25,0,0,0-.26.2H36.9c0-.49,0-1,0-1.5s0-.72,0-1.08a.31.31,0,0,0,.27.13.29.29,0,0,0,.12.55h0a.27.27,0,0,0,.27-.31h0a.29.29,0,0,0,0-.57.24.24,0,0,0-.19.08.29.29,0,0,0-.48-.28l-.05.05s0,0,0,.07c0-.52-.07-1-.13-1.55a.27.27,0,0,0,.4-.11.26.26,0,0,0,.25-.27V28.6a.29.29,0,0,0-.57,0v0a.2.2,0,0,0-.12.08c0-.21-.05-.42-.09-.63a.25.25,0,0,0,.12,0,.28.28,0,0,0,0-.56A30.76,30.76,0,0,1,52,16.42Zm-12.3,16.4a.27.27,0,0,0-.34.27v0l-.08,0,.39-.47A.31.31,0,0,0,39.65,32.82Zm-.75.66a.25.25,0,0,0-.11.22v.09l-.28.16.38-.48Zm-1.1,0-.07.08s0,0,0,0A.18.18,0,0,0,37.8,33.46Zm-.41.5-.14.17a.28.28,0,0,0-.27.2l0,.06s0,0,0,0a.2.2,0,0,0-.08,0c0-.1,0-.2,0-.3l.11,0a.29.29,0,0,0,.31-.24h0S37.36,33.93,37.39,34Zm-.72,3.81.07.06h-.11s0-.06,0-.09Zm.86-14.38a.41.41,0,0,0,.16,0,.32.32,0,0,0,0,.37l-.08,0-.12,0A.31.31,0,0,0,37.53,23.39Zm-12.29.74a.28.28,0,0,0,.05.56.26.26,0,0,0,.27-.22c.29.31.57.62.85.94a.29.29,0,0,0,.21.48.25.25,0,0,0,.16-.05l.38.48a.29.29,0,0,0,.11.55.27.27,0,0,0,.23-.13l.51.69a.29.29,0,0,0,.17.51l.09,0,0,.17a.29.29,0,0,0-.48.21v0a.28.28,0,0,0,.41.25c0,.06,0,.12,0,.18h0a.28.28,0,0,0-.05.56l-.06.54a.25.25,0,0,0-.24-.16.29.29,0,0,0,0,.57.24.24,0,0,0,.21-.1c0,.14,0,.29,0,.44a.29.29,0,0,0-.46.22v0a.28.28,0,0,0,.44.23c0,.31,0,.61,0,.92a.28.28,0,0,0-.39.41h0a.29.29,0,0,0,0,.58h0a.29.29,0,0,0,.2-.49.22.22,0,0,0,.18-.08c0,.14,0,.28,0,.42a.28.28,0,0,0,0,.56c0,.19,0,.38,0,.57h0a.26.26,0,0,0-.27.24l-.12-.15h0a.29.29,0,0,0,0-.58.27.27,0,0,0-.27.25L27,33.4a.3.3,0,0,0-.21-.49.25.25,0,0,0-.15.05l-.51-.62s0,0,0,0a.25.25,0,0,0,.22.11h0a.29.29,0,0,0,0-.57h0a.21.21,0,0,0-.12,0,.3.3,0,0,0-.47,0l-.08-.09a.29.29,0,0,0,0-.57.27.27,0,0,0-.27.23L25.07,31h.06a.29.29,0,0,0,0-.57.28.28,0,0,0-.28.3l-.43-.53.09,0a.29.29,0,0,0,0-.57.27.27,0,0,0-.26.34l-2.41-2.88a.24.24,0,0,0,.17.07h.07a.29.29,0,0,0,0-.57H22a.28.28,0,0,0-.23.44l-.66-.79a.25.25,0,0,0,.18.07.29.29,0,0,0,0-.57.29.29,0,0,0-.23.45l-.34-.42c-2.72-3.23-5.51-6.56-7.81-9.42A31.32,31.32,0,0,1,25.24,24.13Zm1.65.53h0l.11,0a.27.27,0,0,0,.23.25.41.41,0,0,0,0,.16Zm.56.65h0v0Zm.65,0,.09,0v.34h0l-.05,0,0,0A.3.3,0,0,0,28.1,25.28Zm.13,12.55,0,0,0,0Zm-.19-1,.1,0a2.64,2.64,0,0,0,0,.28l0-.05,0,0a.29.29,0,0,0-.48.22l-.12,0h0a.28.28,0,0,0,.13-.3.23.23,0,0,0,.18,0h.11ZM28,34.55H28v.06Zm.23,2.72v.07l0,0ZM26.36,34l0,0h0ZM12.11,16.78c2.33,2.91,5.19,6.31,8,9.62l1.18,1.4H21.2a.29.29,0,0,0,0,.57.27.27,0,0,0,.28-.29l.39.47a.28.28,0,0,0-.21.38.28.28,0,0,0-.13,0,.29.29,0,1,0,.26.18.25.25,0,0,0,.13,0,.26.26,0,0,0,.26-.19q.84,1,1.65,2a.26.26,0,0,0-.06.17v0a.24.24,0,0,0,0,.08.28.28,0,0,0-.22-.11.29.29,0,0,0,0,.57.27.27,0,0,0,.26-.37.3.3,0,0,0,.36.06l.74.89a.25.25,0,0,0-.15.24v0a.29.29,0,0,0,.51.17c.23.28.46.55.68.83a.3.3,0,0,0-.08.2l-.2-.1a.28.28,0,0,0,0-.16v0a.29.29,0,0,0-.56-.06l-.33-.16a.3.3,0,0,0-.21-.49.27.27,0,0,0-.27.25c-.49-.22-1-.43-1.52-.63a.34.34,0,0,0,0-.28h0a.29.29,0,0,0,0-.57.28.28,0,0,0-.26.39h0a.28.28,0,0,0-.28.29l-.89-.31a.26.26,0,0,0,.09-.21v0a.29.29,0,0,0-.57,0v0s0,0,0,.06c-1-.32-2.1-.6-3.24-.85a.29.29,0,0,0-.18-.5h0a.28.28,0,0,0-.25.41l-.57-.11-.06-.07a.26.26,0,0,0,.2.08.29.29,0,0,0,0-.57.28.28,0,0,0-.22.45A24.7,24.7,0,0,1,12.11,16.78Zm16.5,27.67a.27.27,0,0,0-.25-.15.26.26,0,0,0-.27.29l-.57.13a.27.27,0,0,0-.28-.27.28.28,0,0,0-.26.36,11.87,11.87,0,0,1-1.58.11.28.28,0,1,0-.53,0l-.51,0a.3.3,0,0,0-.13-.19.28.28,0,0,0,0-.56.24.24,0,0,0-.25.17.25.25,0,0,0-.26-.19.29.29,0,0,0,0,.57.26.26,0,0,0,.25-.18.28.28,0,0,0,.12.16.27.27,0,0,0-.23.15,9.59,9.59,0,0,1-1.49-.3.28.28,0,0,0-.27-.36.26.26,0,0,0-.26.21,13.15,13.15,0,0,1-3.71-1.85l.08,0a.29.29,0,0,0,0-.57.28.28,0,0,0-.22.45l-.31-.22a26.08,26.08,0,0,1-3.38-3.35,22.28,22.28,0,0,0-4.35-4,11.37,11.37,0,0,0-7.75-1.55,15.61,15.61,0,0,1,5.59-2.08,23.12,23.12,0,0,1,7.85.11c.85.15,1.66.31,2.44.49a.32.32,0,0,0-.06.17v0a.29.29,0,0,0,.57,0v0a.09.09,0,0,0,0-.05,30.2,30.2,0,0,1,6,2.06c-.19.26.18.62.43.37l0,0a.61.61,0,0,0,.07-.1l.92.49a.28.28,0,0,0,.23.44.26.26,0,0,0,.25-.16c.25.14.5.3.74.45a.28.28,0,0,0,.26.4.27.27,0,0,0,.21-.1l.22.15a.16.16,0,0,0,0,.09.26.26,0,0,0-.21-.09.29.29,0,0,0-.18.5.3.3,0,0,0-.06.24.29.29,0,0,0-.3.47l0,0a.24.24,0,0,0,.2.08.29.29,0,0,0,.17.51h0a.27.27,0,0,0,0,.2h-.11a.28.28,0,0,0-.21.09.27.27,0,0,0-.27-.33.29.29,0,0,0,0,.57.29.29,0,0,0,.21-.09.27.27,0,0,0,.27.33h0l.09,0a.25.25,0,0,0,.15,0,.22.22,0,0,0,.18-.08.29.29,0,0,0,.41-.14c0,.14,0,.29,0,.44a.18.18,0,0,0-.11,0h-.11a.27.27,0,0,0-.53.08l0,0a.26.26,0,0,0-.27-.22h0a.29.29,0,0,0-.1.55.27.27,0,0,0,.31.22.29.29,0,0,0,.19.5.29.29,0,0,0,0-.57h0a.26.26,0,0,0,.08-.2h0a.26.26,0,0,0,.16.06l.07,0a.28.28,0,0,0,0,.13v.12a.29.29,0,0,0,.54.13,2.36,2.36,0,0,0,0,.28.29.29,0,0,0-.28-.12h-.06a.27.27,0,0,0-.26.35V40a.29.29,0,0,0,0,.14.3.3,0,0,0,.4.32h0l0,0v0a.28.28,0,0,0-.43.23v.05a.24.24,0,0,0,.06.17l0,0,0,0a.18.18,0,0,0,0,.08h-.05a.29.29,0,0,0-.2.49h0a.29.29,0,0,0-.11.55.31.31,0,0,0,.06.19l0,0v.17a.32.32,0,0,0,.08.12.29.29,0,0,0-.13.4.28.28,0,0,0,.22.46.25.25,0,0,0,.2-.09.27.27,0,0,0,.27.31.26.26,0,0,0,.19-.07.28.28,0,0,0,.18.44.24.24,0,0,0,.24.15.25.25,0,0,0,.23-.14.23.23,0,0,0,.08.17ZM29,44a.27.27,0,0,0-.23-.24.24.24,0,0,0-.24-.15.22.22,0,0,0-.18.08.29.29,0,0,0-.23-.46.27.27,0,0,0-.2.09.41.41,0,0,0,0-.16.33.33,0,0,0,0-.33.12.12,0,0,0,.08.06l.08,0c.33.16.62-.33.29-.5l-.08,0a.3.3,0,0,0-.26,0,.05.05,0,0,0,0,0,.29.29,0,0,0-.16-.43.34.34,0,0,0-.08-.21h0a.26.26,0,0,0,.25-.18.25.25,0,0,0,.26-.07l0,0a.26.26,0,0,0,0-.38.28.28,0,0,0,.12-.14.28.28,0,0,0,.25,0l.06.35a.29.29,0,0,0-.23.4.24.24,0,0,0-.15,0,.26.26,0,0,0-.27.3.28.28,0,0,0,.24.42.26.26,0,0,0,.27-.3.3.3,0,0,0,0-.26.34.34,0,0,0,.16,0l.07,0,.09.48a.33.33,0,0,0-.15-.05.65.65,0,0,0-.05.75.28.28,0,0,0-.13.39l0,.05a.23.23,0,0,0,.28.13.29.29,0,0,0,.17.34A.2.2,0,0,0,29,44Zm-.47-17.34h0v0Zm.57,16.46A.07.07,0,0,0,29,43l0,0a.43.43,0,0,0,0,.11Zm0,.26a.22.22,0,0,0,0-.08s0,0,0,.07ZM32,48.83a.47.47,0,0,1-.07-.12l.08-.05A1,1,0,0,0,32,48.83Zm0-.81a.27.27,0,0,0-.16.08h0a.19.19,0,0,0-.12,0l-.11.06a3.43,3.43,0,0,1-.23-.47.27.27,0,0,0,.41-.12.21.21,0,0,0,.12,0H32l.07,0C32.09,47.76,32.08,47.89,32.07,48Zm.06-.92-.11,0H32a.26.26,0,0,0-.2.08.19.19,0,0,0,0-.08v0a.29.29,0,0,0-.37-.27.37.37,0,0,0,.12-.07.27.27,0,0,0,.24-.25.26.26,0,0,0,.19.08.27.27,0,0,0,.2-.09C32.16,46.67,32.14,46.88,32.13,47.1ZM32.24,45a.23.23,0,0,0-.07-.1l0-.05a.27.27,0,0,0-.16-.08.31.31,0,0,0,0-.31.28.28,0,1,0-.27.45.25.25,0,0,0,0,.34l.05,0a.28.28,0,0,0,.46-.11c0,.29,0,.58,0,.86A.24.24,0,0,0,32,46a.27.27,0,0,0-.27.23.3.3,0,0,0-.42,0,.27.27,0,0,0-.25.27v.05a.28.28,0,0,0,.35.27.24.24,0,0,0-.16.25v0a.26.26,0,0,0,.16.25.24.24,0,0,0-.05.16c-.16-.37-.33-.78-.49-1.25a.29.29,0,0,0,0-.57.28.28,0,0,0-.13,0c-.11-.34-.22-.69-.32-1.07a.24.24,0,0,0,.17.06.29.29,0,0,0,0-.57.25.25,0,0,0-.26.2A48.35,48.35,0,0,1,28.8,32,21.89,21.89,0,0,1,32,20.2,226.91,226.91,0,0,1,32.24,45Zm.28-26.51a.4.4,0,0,0-.19,0,.46.46,0,0,0-.27.13l-.08,0a.29.29,0,0,0-.22.46c-.13.18-.27.38-.4.58a.24.24,0,0,0-.25-.17.33.33,0,0,0-.14,0,.25.25,0,0,0-.26-.22.29.29,0,0,0,0,.57.23.23,0,0,0,.14,0,.25.25,0,0,0,.24.21l-.14.25a.25.25,0,0,0-.18-.11.26.26,0,0,0-.22-.11l-.11,0a.28.28,0,0,0-.25-.4.29.29,0,0,0,0,.57l.11,0a.28.28,0,0,0,.21.39.27.27,0,0,0,.19.11c-.13.24-.27.47-.39.71l-.07-.09,0,0a.27.27,0,0,0-.4,0,.26.26,0,0,0-.21-.09.29.29,0,0,0,0,.57.27.27,0,0,0,.2-.09h0l0,0a.27.27,0,0,0,.3.06c-.08.15-.15.32-.22.47a.25.25,0,0,0-.16-.05.24.24,0,0,0-.23.14l-.05,0a.29.29,0,0,0-.18-.5.23.23,0,0,0-.19.08.28.28,0,0,0-.55,0,.25.25,0,0,0-.18-.07.26.26,0,0,0-.27.26.28.28,0,0,0,.11.54.26.26,0,0,0,.27-.25.27.27,0,0,0,.16-.25.29.29,0,0,0,.19.07.24.24,0,0,0,.19-.08.27.27,0,0,0,.2.22.26.26,0,0,0,0,.41l.08.08a.25.25,0,0,0,.36,0c-.09.22-.17.45-.25.68a.27.27,0,0,0-.14-.17.29.29,0,1,0-.32,0,.25.25,0,0,0-.1.21v0a.24.24,0,0,0,0,.08.24.24,0,0,0-.17-.06.29.29,0,0,0,0,.57.28.28,0,0,0,.27-.37.31.31,0,0,0,.32,0l-.12.36a.2.2,0,0,0-.11,0,.29.29,0,0,0-.07.56l0,.11a.26.26,0,0,0-.26-.18.25.25,0,0,0-.21.11l0,0a.29.29,0,0,0-.05-.57h0a.29.29,0,0,0-.17.51h0a.28.28,0,0,0-.45-.07l0,0,0,.06-.08,0a.28.28,0,0,0-.24-.43l-.11,0a.26.26,0,0,0-.27-.25h0a.27.27,0,0,0-.27.26l-.27-.29h.08a.28.28,0,0,0,.23-.44h.07a.27.27,0,0,0,.26-.36.27.27,0,0,0,.37-.26v0a.29.29,0,0,0-.55-.11.3.3,0,0,0-.13-.36.32.32,0,0,0,.12-.31.26.26,0,0,0,.27.24.29.29,0,0,0,0-.57.28.28,0,0,0-.27.32.25.25,0,0,0-.26-.22h0a.24.24,0,0,0-.22.12.25.25,0,0,0-.15-.05.28.28,0,0,0-.26.38.29.29,0,0,0-.55.12v0a.29.29,0,0,0,.57,0v0a.3.3,0,0,0,0-.1.26.26,0,0,0,.26.18.25.25,0,0,0,.22-.12l0,0a.29.29,0,0,0,.15.53.26.26,0,0,0,.26-.18.31.31,0,0,0,0,.11v0s0,0,0,.06h-.07a.29.29,0,0,0-.23.45l-.07,0a.28.28,0,0,0-.26.37l-.32-.34a.33.33,0,0,0,0-.24.24.24,0,0,0,.22.12.29.29,0,0,0,0-.57.28.28,0,0,0-.26.37.27.27,0,0,0-.23-.12.25.25,0,0,0-.15.05L25,22.65l.1,0a.29.29,0,0,0,0-.57.28.28,0,0,0-.24.41c-.59-.55-1.2-1.07-1.83-1.57a.27.27,0,0,0,.19-.31h0a.27.27,0,0,0,.27.33.28.28,0,0,0,.16-.05l0,.05-.05.13a.28.28,0,0,0,.2.35.3.3,0,0,0,.35-.2l0-.13a.28.28,0,0,0-.2-.35.25.25,0,0,0-.25.06.28.28,0,0,0-.23-.43l-.09,0a.25.25,0,0,0-.07-.24l0-.05a.26.26,0,0,0-.35,0c0-.2.08-.41.12-.61a.26.26,0,0,0,.26.18.2.2,0,0,0,.13,0,.28.28,0,0,0,.56,0v0a.29.29,0,0,0-.43-.24.25.25,0,0,0-.26-.22.29.29,0,0,0-.19.07c0-.2.11-.4.17-.6a.26.26,0,0,0,.27.28.29.29,0,0,0,0-.57.26.26,0,0,0-.27.27A23.23,23.23,0,0,1,25.5,13a.26.26,0,0,0,.27.21h0a.29.29,0,0,0,0-.57h-.1a22.65,22.65,0,0,1,5.35-6.18,2.22,2.22,0,0,1,2.76,0,22.6,22.6,0,0,1,5.63,6.67.3.3,0,0,0,.12.22,24.3,24.3,0,0,1,1.36,3,.28.28,0,0,0,0,.56.33.33,0,0,0,.15,0c0,.09,0,.18.08.26a.29.29,0,1,0,.17.52c0,.12.07.25.11.38a.29.29,0,0,0,.14.52c0,.19.1.38.14.57a.26.26,0,0,0-.25.27v0a.27.27,0,0,0,.38.26l.12.63a.26.26,0,0,0-.24-.15.29.29,0,0,0,0,.57.27.27,0,0,0,.27-.24v0a.3.3,0,0,0,0,.33l-.14.11a.27.27,0,0,0-.26-.17.26.26,0,0,0-.16.06.25.25,0,1,0-.08.1.28.28,0,0,0,.08.35l-.19.15,0,0c.11-.35-.44-.5-.56-.15l0,.07a.26.26,0,0,0,0,.23.3.3,0,0,0,0,.34l-.43.38s0-.05,0-.06a.29.29,0,0,0-.23-.46.29.29,0,0,0-.14.53.3.3,0,0,0,0,.35l-.2.2a.28.28,0,0,0-.27-.36h-.12a.28.28,0,0,0,0-.22.27.27,0,0,0,.14-.07l0,0c.26-.26-.15-.66-.41-.4l0,0a.25.25,0,0,0,0,.33.28.28,0,0,0,.06.56h.07a.28.28,0,0,0,.26.37h.11l-.34.33a.25.25,0,0,0-.15-.05h0a.29.29,0,0,0-.21.47l-.32.32a.25.25,0,0,0-.26-.2.29.29,0,0,0-.22.46l-.08,0a.23.23,0,0,0-.15-.12.3.3,0,0,0,.06-.41l.08,0a.28.28,0,0,0,.27-.37.25.25,0,0,0,.25.18h0a.29.29,0,0,0,.22-.47l.07,0a.29.29,0,0,0,0-.58.27.27,0,0,0-.27.24.27.27,0,0,0-.26-.34h0a.28.28,0,0,0-.26.39.27.27,0,0,0-.22-.12.29.29,0,0,0-.16-.52.28.28,0,0,0,0,.56.35.35,0,0,0-.07.09v0a.24.24,0,0,0,0,.29l-.1,0a.29.29,0,0,0,0,.57.24.24,0,0,0,.15,0,.29.29,0,0,0,0,.52.3.3,0,0,0-.08.37.24.24,0,0,0-.17-.06.29.29,0,0,0-.23.44l-.09,0a.28.28,0,0,0-.27-.35h0a.26.26,0,0,0-.26-.2.28.28,0,0,0-.27.36A.26.26,0,0,0,36,25c-.09-.32-.2-.63-.31-.94a.26.26,0,0,0,.21-.29.28.28,0,0,0,.26-.15l.09,0a.29.29,0,0,0-.06.24.28.28,0,0,0-.37.26v.08a.29.29,0,0,0,.57,0v-.08s0,0,0,0l.08,0a.3.3,0,0,0,.19-.08.31.31,0,0,0,.07.09.29.29,0,0,0,.15.53h0a.3.3,0,0,0,.16-.05.28.28,0,0,0,.38-.26v0a.27.27,0,0,0-.31-.27.28.28,0,0,0-.15-.41.32.32,0,0,0,0-.37.27.27,0,0,0,.2-.08h0a.29.29,0,0,0-.4-.41h0a.28.28,0,0,0,0,.39.24.24,0,0,0-.17.06.2.2,0,0,0-.13-.14.28.28,0,0,0-.06-.56.25.25,0,0,0-.16.05.27.27,0,0,0-.28-.26.27.27,0,0,0-.21.1.26.26,0,0,0-.27-.25.29.29,0,0,0,0,.57.24.24,0,0,0,.21-.1.26.26,0,0,0,.27.25.31.31,0,0,0,.17-.05.26.26,0,0,0,.13.22.28.28,0,0,0-.21.17.3.3,0,0,0-.26,0,.28.28,0,0,0-.26-.38.27.27,0,0,0-.24.14c-.09-.24-.2-.47-.31-.7h0a.29.29,0,0,0,0-.57.25.25,0,0,0-.21.11,18.17,18.17,0,0,0-1.89-3.14A.43.43,0,0,0,32.52,18.51ZM37.93,23a.25.25,0,0,0,.22.11h0a.26.26,0,0,0,.26-.21.27.27,0,0,0,.06.21h-.09a.28.28,0,0,0-.26.36.26.26,0,0,0-.26-.18h0a.08.08,0,0,0,0,0h0A.28.28,0,0,0,37.93,23ZM36.6,38.92a.22.22,0,0,0,.09.07v0a.2.2,0,0,0-.11,0,.15.15,0,0,0-.07,0l0-.28A.29.29,0,0,0,36.6,38.92Zm-.15.62,0,0v0Zm-.89-16-.1,0c0-.05,0-.1-.05-.15l.08,0,.09,0a.29.29,0,0,0,0,.09v0ZM32.88,48.78c0-.2,0-.39,0-.59a.28.28,0,0,0,.18.06l0,0h0A5.45,5.45,0,0,1,32.88,48.78Zm1-2.28a.26.26,0,0,0-.19.26v0a.21.21,0,0,0,0,.12l-.12.31a.28.28,0,0,0-.48-.16l0,0a.28.28,0,0,0,.39.41l-.1.25-.09-.05h0a.33.33,0,0,0-.33,0c0-.22,0-.44,0-.67l.1,0a.29.29,0,0,0,0-.57H33l0-.48.16.16a.24.24,0,0,0,.09.06.25.25,0,0,0,.25.17.29.29,0,0,0,.12-.55.24.24,0,0,0-.06-.08l0,0a.3.3,0,0,0,.16.05.3.3,0,0,0,.08.2.28.28,0,0,0,.27.07C34,46.2,34,46.35,33.93,46.5Zm1.41-6.06h.09a37.28,37.28,0,0,1-1.07,4.73.25.25,0,0,0-.2.15.33.33,0,0,0-.1.06l0,0a.29.29,0,0,0-.57.05v0a.25.25,0,0,0,0,.16l-.07-.08a.27.27,0,0,0-.37,0,226.26,226.26,0,0,0-.2-25.33A21.93,21.93,0,0,1,36.07,32c0,1.49-.06,2.89-.16,4.21l-.06,0a.29.29,0,0,0,0,.58h0c-.09,1.1-.21,2.14-.36,3.11a.2.2,0,0,0-.11,0h0A.29.29,0,0,0,35.34,40.44Zm1,1.64a.27.27,0,0,0,0,.2.21.21,0,0,0-.12,0h0a.32.32,0,0,0-.17.06.39.39,0,0,0-.08-.1A2.38,2.38,0,0,1,36,42,.29.29,0,0,0,36.37,42.08ZM35.58,44v0Zm.09-.38c0-.06,0-.12,0-.19a.22.22,0,0,0,.08.14Zm.28.75h0l0,0Zm.64.19-.26-.07a.27.27,0,0,0,.22-.13h.08a.29.29,0,0,0,.14,0,.2.2,0,0,0,.08,0A.27.27,0,0,0,36.59,44.54ZM55,34.8a21.72,21.72,0,0,0-4.35,4c-.76.85-1.54,1.71-2.38,2.49v0l0-.08c.17-.33-.33-.62-.49-.29l0,.08a.3.3,0,0,0,.38.41c-.3.26-.6.52-.91.76l-.37.26a.33.33,0,0,0-.14,0,.27.27,0,0,0-.27.33c-.25.17-.51.32-.76.47a.29.29,0,0,0-.19-.07h0a.27.27,0,0,0-.27.34,12.36,12.36,0,0,1-4.44,1.37.28.28,0,0,0-.27-.36.29.29,0,0,0-.25.4l-.4,0a.28.28,0,0,0,.05-.16v0a.29.29,0,0,0-.57,0v0a.26.26,0,0,0,.06.16,9.82,9.82,0,0,1-1.09-.06.33.33,0,0,0,0-.14v0a.29.29,0,0,0-.57,0v0s0,.05,0,.07c-.17,0-.34-.06-.51-.09a.28.28,0,0,0,0-.54.27.27,0,0,0-.26-.34.29.29,0,0,0-.14,0,.24.24,0,0,0-.19-.08.25.25,0,0,0-.23.14l-.09,0h-.12l-.1,0a.32.32,0,0,0-.08-.31.27.27,0,0,0,.25-.18.3.3,0,0,0,.48,0h0a.29.29,0,0,0,0-.57h0a3.83,3.83,0,0,0-.5.24.27.27,0,0,0-.26-.36.29.29,0,0,0-.14,0l0-.08a.26.26,0,0,0,.12,0,.27.27,0,0,0,.24.14h0a.28.28,0,0,0,.24-.43.21.21,0,0,0,.12,0h.08a.28.28,0,0,0,.25.41.29.29,0,0,0,0-.57.24.24,0,0,0,.15-.23.31.31,0,0,0,.2.08.24.24,0,0,0,.17-.07.27.27,0,0,0,.27.23A.27.27,0,0,0,38,42a.21.21,0,0,0,.16-.08l0,0c.26-.26-.15-.66-.41-.4l0,0a.26.26,0,0,0-.08.21.22.22,0,0,0-.14,0,.25.25,0,0,0-.26-.22.26.26,0,0,0-.27.25.31.31,0,0,0-.46.06.29.29,0,0,0-.48-.27h0l.06-.35a.28.28,0,0,0,.53-.14V41a.26.26,0,0,0-.07-.19.29.29,0,0,0-.23-.45.24.24,0,0,0-.09,0l.06-.44s0,0,0,0a.29.29,0,0,0,0,.16.3.3,0,0,0,.27.21.27.27,0,0,0,.25.31.3.3,0,0,0,.13.23.26.26,0,0,0,.27.25.29.29,0,0,0,.15-.52.27.27,0,0,0-.25-.25.4.4,0,0,0-.09-.2l.07-.07a.25.25,0,0,0,.22-.22.29.29,0,0,0-.06-.56h0a.41.41,0,0,0-.11-.07h0a.25.25,0,0,0,.06-.17v0a.26.26,0,0,0-.16-.25.31.31,0,0,0-.07-.29.25.25,0,0,0-.22-.11.26.26,0,0,0-.25.18l0-.23.1,0a.26.26,0,0,0,.26-.18.27.27,0,0,0,.27.34.26.26,0,0,0,.27-.28v.06a.29.29,0,0,0,.57,0v-.06a.29.29,0,0,0-.57,0A.27.27,0,0,0,37.2,38h0a.27.27,0,0,0,.07-.44l-.06-.07a.28.28,0,0,0,.38-.23.28.28,0,0,0,.44.06l.08-.08c.26-.26-.15-.66-.41-.4l-.08.08a.41.41,0,0,0-.07.11.29.29,0,0,0-.53.14v.06a.27.27,0,0,0,0,.12h0a.29.29,0,0,0-.33-.14c0-.15,0-.31,0-.46a.25.25,0,0,0,.25.19.26.26,0,0,0,.27-.31.27.27,0,0,0,.32-.27v-.06a.36.36,0,0,0,0-.11.29.29,0,0,0,.5-.19v0l.06,0h.06a.29.29,0,0,0,0-.58h-.06a.26.26,0,0,0-.27.28.27.27,0,0,0-.36.26v0a.2.2,0,0,0,0,.11.24.24,0,0,0-.11-.06.25.25,0,0,0-.15-.05.33.33,0,0,0-.15,0,.32.32,0,0,0-.31.08.22.22,0,0,1,0-.08l0,0h0c.49-.34,1-.66,1.5-1a.29.29,0,0,0,.56-.07v0a.24.24,0,0,0-.06-.17c.22-.13.44-.26.67-.38a.27.27,0,0,0,.28.31.29.29,0,0,0,.15-.52,31.24,31.24,0,0,1,7.79-2.58.26.26,0,0,0,.27.28.28.28,0,0,0,.26-.39l1-.19a23.12,23.12,0,0,1,7.85-.11,15.73,15.73,0,0,1,5.6,2.08A11.36,11.36,0,0,0,55,34.8Z"/><path d="M26.23,36.88v0a.29.29,0,0,0-.57,0v0A.29.29,0,0,0,26.23,36.88Z"/><path d="M25.87,38.61a.29.29,0,0,0,0-.57A.29.29,0,0,0,25.87,38.61Z"/><path d="M26.7,36.44a.29.29,0,0,0,0,.57A.29.29,0,0,0,26.7,36.44Z"/><path d="M26.51,35.8a.29.29,0,0,0,0-.57A.29.29,0,0,0,26.51,35.8Z"/><path d="M26.59,39.94a.29.29,0,0,0,0-.57A.29.29,0,0,0,26.59,39.94Z"/><path d="M26.19,37.53v0a.29.29,0,0,0,.57,0v0A.29.29,0,0,0,26.19,37.53Z"/><path d="M26.36,39a.29.29,0,0,0,0-.57A.29.29,0,0,0,26.36,39Z"/><path d="M25.42,40.47a.25.25,0,0,0-.17-.06.29.29,0,1,0,.22.12.29.29,0,0,0,.17.06h0a.29.29,0,0,0,0-.58h0A.29.29,0,0,0,25.42,40.47Z"/><path d="M26.78,40.85a.29.29,0,0,0,0,.57A.29.29,0,0,0,26.78,40.85Z"/><path d="M27.12,40.27h0a.25.25,0,0,0,.24.27.29.29,0,0,0,.14.54.29.29,0,0,0,0-.57.25.25,0,0,0,.15-.24v0a.26.26,0,0,0-.21-.26.27.27,0,0,0-.28-.28A.29.29,0,0,0,27.12,40.27Z"/><path d="M26.15,41.1v0a.29.29,0,0,0-.57,0v0A.29.29,0,0,0,26.15,41.1Z"/><path d="M25.78,41.7a.29.29,0,0,0,0,.57A.29.29,0,0,0,25.78,41.7Z"/><path d="M26.87,42l0,0a.24.24,0,0,0-.2,0,.27.27,0,0,0,0-.38l0,0a.28.28,0,0,0-.4.4l0,0a.25.25,0,0,0,.26.07.26.26,0,0,0,.06.42l.05,0C26.91,42.61,27.2,42.12,26.87,42Z"/><path d="M27.87,43.8a.29.29,0,0,0,0,.58A.29.29,0,0,0,27.87,43.8Z"/><path d="M27.07,43.55a.29.29,0,0,0,0,.57A.29.29,0,0,0,27.07,43.55Z"/><path d="M26.34,42.71a.29.29,0,0,0,0,.57A.29.29,0,0,0,26.34,42.71Z"/><path d="M25.66,42.84v0a.29.29,0,0,0-.57,0v0A.29.29,0,0,0,25.66,42.84Z"/><path d="M24.16,43.27v0a.29.29,0,0,0,.58,0v0A.29.29,0,0,0,24.16,43.27Z"/><path d="M25.05,43.76a.29.29,0,0,0,0,.57A.29.29,0,0,0,25.05,43.76Z"/><path d="M25.53,43.77a.29.29,0,0,0,0-.57A.29.29,0,0,0,25.53,43.77Z"/><path d="M25.59,44.08a.29.29,0,0,0,0,.58A.29.29,0,0,0,25.59,44.08Z"/><path d="M26.49,44.13a.29.29,0,0,0,0,.57A.29.29,0,0,0,26.49,44.13Z"/><path d="M24.68,41.55a.29.29,0,0,0,.57,0v0a.29.29,0,0,0-.57,0Z"/><path d="M24.82,42.59a.29.29,0,0,0,0-.57A.29.29,0,0,0,24.82,42.59Z"/><path d="M23.5,42.15h0a.29.29,0,0,0,0,.57h0A.29.29,0,0,0,23.5,42.15Z"/><path d="M23.48,43.14a.29.29,0,0,0,0,.57A.29.29,0,0,0,23.48,43.14Z"/><path d="M24.24,41.12a.29.29,0,0,0,0,.57A.29.29,0,0,0,24.24,41.12Z"/><path d="M22.84,41.55a.29.29,0,0,0,0,.57A.29.29,0,0,0,22.84,41.55Z"/><path d="M22.45,42.58a.29.29,0,0,0,0,.57A.29.29,0,0,0,22.45,42.58Z"/><path d="M22.62,43.44a.29.29,0,0,0,0,.57A.29.29,0,0,0,22.62,43.44Z"/><path d="M21.55,43.25a.29.29,0,0,0,0,.57A.29.29,0,0,0,21.55,43.25Z"/><path d="M23.2,40.69a.29.29,0,0,0,0,.57A.29.29,0,0,0,23.2,40.69Z"/><path d="M23.78,39.42a.29.29,0,0,0,0,.57A.29.29,0,0,0,23.78,39.42Z"/><path d="M24.45,40.83a.29.29,0,0,0,0-.57A.29.29,0,0,0,24.45,40.83Z"/><path d="M25,40.08h0a.29.29,0,0,0,0-.58h0A.29.29,0,0,0,25,40.08Z"/><path d="M25.07,39.43a.29.29,0,0,0,0-.57A.29.29,0,0,0,25.07,39.43Z"/><path d="M25.85,39.52h0a.29.29,0,0,0,0-.57h0A.29.29,0,0,0,25.85,39.52Z"/><path d="M24.56,38a.29.29,0,0,0,0,.57A.29.29,0,0,0,24.56,38Z"/><path d="M23.63,38.09a.29.29,0,0,0,0,.57A.29.29,0,0,0,23.63,38.09Z"/><path d="M24.06,36.88a.24.24,0,0,0-.24.16.31.31,0,0,0-.17,0,.29.29,0,0,0,0,.57.26.26,0,0,0,.25-.16.3.3,0,0,0,.16.05A.29.29,0,0,0,24.06,36.88Z"/><path d="M24.92,37.24a.29.29,0,0,0,0-.57A.29.29,0,0,0,24.92,37.24Z"/><path d="M24.9,37.68v.09a.29.29,0,0,0,.57,0v-.09A.29.29,0,0,0,24.9,37.68Z"/><path d="M25.48,35.84a.29.29,0,0,0,0-.57A.29.29,0,0,0,25.48,35.84Z"/><path d="M24.3,35.58a.29.29,0,0,0,0-.57A.29.29,0,0,0,24.3,35.58Z"/><path d="M24.4,35.76c-.26.26.14.67.4.41l0,0a.28.28,0,0,0-.4-.4Z"/><path d="M23.14,36.29a.29.29,0,0,0,0-.57A.29.29,0,0,0,23.14,36.29Z"/><path d="M25.33,35a.29.29,0,0,0,0-.57A.29.29,0,0,0,25.33,35Z"/><path d="M23,40v-.06a.29.29,0,0,0-.57,0V40A.29.29,0,0,0,23,40Z"/><path d="M23,38.82a.29.29,0,0,0-.57,0v0a.29.29,0,0,0,.57,0Z"/><path d="M24.54,38.87v0a.29.29,0,0,0-.57,0v0A.29.29,0,0,0,24.54,38.87Z"/><path d="M21.9,39.38v0a.29.29,0,0,0-.57,0v0a.27.27,0,0,0,.07.19.24.24,0,0,0-.17-.07.29.29,0,1,0,.21.1A.28.28,0,0,0,21.9,39.38Z"/><path d="M19.55,41a.29.29,0,0,0,0-.57A.29.29,0,0,0,19.55,41Z"/><path d="M20.26,41.85a.29.29,0,0,0,0,.57A.29.29,0,0,0,20.26,41.85Z"/><path d="M21.05,40.82a.29.29,0,0,0,0,.57A.29.29,0,0,0,21.05,40.82Z"/><path d="M21.94,41.2h0a.29.29,0,0,0,0,.57h0A.29.29,0,0,0,21.94,41.2Z"/><path d="M22.26,40.66a.29.29,0,0,0,0-.57A.29.29,0,0,0,22.26,40.66Z"/><path d="M18.6,41.16a.29.29,0,0,0,0,.57A.29.29,0,0,0,18.6,41.16Z"/><path d="M17.31,40.36a.29.29,0,0,0,0,.58A.29.29,0,0,0,17.31,40.36Z"/><path d="M19.26,42.93v0a.29.29,0,0,0,.57,0v0A.29.29,0,0,0,19.26,42.93Z"/><path d="M20.52,43.27a.29.29,0,0,0,0,.57A.29.29,0,0,0,20.52,43.27Z"/><path d="M19.23,41.5a.29.29,0,0,0,0,.58A.29.29,0,0,0,19.23,41.5Z"/><path d="M21.33,42.52h.05a.29.29,0,1,0-.15-.05h-.05a.29.29,0,1,0,.15.05Z"/><path d="M20.3,39.6a.29.29,0,0,0,0-.57h0a.29.29,0,0,0,0,.57Z"/><path d="M18.35,39.65a.29.29,0,0,0,0-.58A.29.29,0,0,0,18.35,39.65Z"/><path d="M18.32,40.21a.29.29,0,0,0,0,.58A.29.29,0,0,0,18.32,40.21Z"/><path d="M17.18,38.9a.29.29,0,0,0,0,.57A.29.29,0,0,0,17.18,38.9Z"/><path d="M15.48,39.25v0a.29.29,0,0,0,.57,0v0A.29.29,0,0,0,15.48,39.25Z"/><path d="M16.17,37.53a.29.29,0,0,0,0,.57A.29.29,0,0,0,16.17,37.53Z"/><path d="M17.31,37.54a.29.29,0,0,0,0-.57A.29.29,0,0,0,17.31,37.54Z"/><path d="M19,37.85a.29.29,0,0,0,0,.57A.29.29,0,0,0,19,37.85Z"/><path d="M17.79,38.09a.29.29,0,0,0,0,.57A.29.29,0,0,0,17.79,38.09Z"/><path d="M19,37.07a.29.29,0,0,0,0-.57A.29.29,0,0,0,19,37.07Z"/><path d="M18.37,36a.29.29,0,0,0,0-.57A.29.29,0,0,0,18.37,36Z"/><path d="M19.72,35.52a.29.29,0,0,0,0-.57A.29.29,0,0,0,19.72,35.52Z"/><path d="M20.9,35.81a.29.29,0,0,0,0,.57A.29.29,0,0,0,20.9,35.81Z"/><path d="M20.46,37.28v0a.29.29,0,0,0-.57,0v0A.29.29,0,0,0,20.46,37.28Z"/><path d="M21.23,37.83a.29.29,0,0,0-.18.49l0,0c.26.26.66-.15.4-.41h0a.28.28,0,0,0,0-.56A.29.29,0,0,0,21.23,37.83Z"/><path d="M22.62,37.73a.29.29,0,0,0,0-.57A.29.29,0,0,0,22.62,37.73Z"/><path d="M21.66,35.71a.29.29,0,0,0,0-.57A.29.29,0,0,0,21.66,35.71Z"/><path d="M21,34.23a.29.29,0,0,0,0-.57A.29.29,0,0,0,21,34.23Z"/><path d="M19.89,34a.29.29,0,0,0,0-.58A.29.29,0,0,0,19.89,34Z"/><path d="M20.6,35.11a.29.29,0,0,0,0-.57A.29.29,0,0,0,20.6,35.11Z"/><path d="M22.13,34.41a.29.29,0,0,0,0,.57A.29.29,0,0,0,22.13,34.41Z"/><path d="M22.09,33.61a.29.29,0,0,0,0-.58A.29.29,0,0,0,22.09,33.61Z"/><path d="M23.33,34.14a.29.29,0,0,0,0-.57A.29.29,0,0,0,23.33,34.14Z"/><path d="M23.31,35.18a.29.29,0,0,0,0-.58A.29.29,0,0,0,23.31,35.18Z"/><path d="M22,36.24a.29.29,0,0,0,0,.57A.29.29,0,0,0,22,36.24Z"/><path d="M22.24,38.79a.29.29,0,0,0,0-.57A.29.29,0,0,0,22.24,38.79Z"/><path d="M20.56,38.45a.29.29,0,0,0,0,.57A.29.29,0,0,0,20.56,38.45Z"/><path d="M20.41,41a.29.29,0,0,0,0-.57A.29.29,0,0,0,20.41,41Z"/><path d="M26.64,40.24a.29.29,0,0,0,0,.57h0a.29.29,0,0,0,0-.57Z"/><path d="M25.92,36.13c.11.34.66.19.55-.16l0-.06c-.12-.35-.67-.2-.56.15Z"/><path d="M27,36.34a.29.29,0,0,0,0-.58A.29.29,0,0,0,27,36.34Z"/><path d="M27,42.6a.29.29,0,0,0,0,.57A.29.29,0,0,0,27,42.6Z"/><path d="M26.54,43.7v-.06a.29.29,0,0,0-.57,0v.06A.29.29,0,0,0,26.54,43.7Z"/><path d="M21.92,31.73a.28.28,0,0,0,.26-.38.28.28,0,0,0,.51-.16v0a.29.29,0,0,0-.57,0v0s0,0,0,.08a.22.22,0,0,0-.21-.11A.29.29,0,0,0,21.92,31.73Z"/><path d="M24,32.44a.25.25,0,0,0,.13,0,.29.29,0,0,0,0-.57.16.16,0,0,0-.1,0,.28.28,0,0,0-.44.23v0A.28.28,0,0,0,24,32.44Z"/><path d="M23.06,31l0,0a.28.28,0,0,0-.4-.4l0,0C22.4,30.82,22.8,31.23,23.06,31Z"/><path d="M27.11,31.52a.28.28,0,0,0-.14.53.29.29,0,0,0,.07.56.29.29,0,0,0,.14-.54A.28.28,0,0,0,27.11,31.52Z"/><path d="M27.66,31.93a.29.29,0,0,0,0-.58A.29.29,0,0,0,27.66,31.93Z"/><path d="M27.11,30.54a.29.29,0,0,0-.24.44.25.25,0,0,0-.19.22.25.25,0,0,0-.25-.17h0a.29.29,0,0,0,0,.57h0a.25.25,0,0,0,.26-.23.27.27,0,0,0,.25.17.29.29,0,0,0,.24-.44A.29.29,0,0,0,27.11,30.54Z"/><path d="M26.13,30.66a.29.29,0,0,0,0-.57.28.28,0,0,0-.26.38l-.09,0a.29.29,0,0,0,0,.57.28.28,0,0,0,.26-.38Z"/><path d="M25.23,29.8a.29.29,0,0,0,0,.57A.29.29,0,0,0,25.23,29.8Z"/><path d="M20.17,30.83a.29.29,0,0,0,0,.58A.29.29,0,0,0,20.17,30.83Z"/><path d="M20.2,30.06a.25.25,0,0,0-.16.05.26.26,0,0,0-.26-.18h0a.29.29,0,0,0,0,.57h0a.28.28,0,0,0,.16-.06.25.25,0,0,0,.26.19A.29.29,0,0,0,20.2,30.06Z"/><path d="M21,30.67a.29.29,0,0,0,0,.57A.29.29,0,0,0,21,30.67Z"/><path d="M21.59,30.82h0a.29.29,0,0,0,0-.57h0A.29.29,0,0,0,21.59,30.82Z"/><path d="M22.27,30.24a.29.29,0,0,0,0-.57A.29.29,0,0,0,22.27,30.24Z"/><path d="M24.48,28.89a.29.29,0,0,0,0,.57A.29.29,0,0,0,24.48,28.89Z"/><path d="M25.23,29.43a.31.31,0,0,0,.16-.06.28.28,0,0,0,.26.38h0a.29.29,0,0,0,0-.57h0a.21.21,0,0,0-.16.06.28.28,0,0,0-.26-.38A.29.29,0,0,0,25.23,29.43Z"/><path d="M26,28.63a.29.29,0,0,0,0,.57h0a.29.29,0,0,0,0-.57Z"/><path d="M26.33,29.38a.29.29,0,0,0,0,.57A.29.29,0,0,0,26.33,29.38Z"/><path d="M27.2,30.24a.29.29,0,0,0,0-.57A.29.29,0,0,0,27.2,30.24Z"/><path d="M27.2,28.78l0,0a.29.29,0,0,0,.41.4l0,0A.28.28,0,0,0,27.2,28.78Z"/><path d="M26.33,27.59a.29.29,0,0,0,0,.57A.29.29,0,0,0,26.33,27.59Z"/><path d="M27.2,28a.29.29,0,0,0,0,.57A.29.29,0,0,0,27.2,28Z"/><path d="M26.78,28.66a.29.29,0,0,0,0,.57A.29.29,0,0,0,26.78,28.66Z"/><path d="M26.62,27.32a.29.29,0,0,0,0-.57A.29.29,0,0,0,26.62,27.32Z"/><path d="M27.14,27.84a.29.29,0,0,0,0-.57A.29.29,0,0,0,27.14,27.84Z"/><path d="M26.26,26.51a.29.29,0,0,0,0-.57A.29.29,0,0,0,26.26,26.51Z"/><path d="M25.51,27.39l-.06.06c-.26.26.14.67.4.41l.07-.07C26.18,27.53,25.78,27.13,25.51,27.39Z"/><path d="M24.58,28.14a.29.29,0,0,0,0,.57A.29.29,0,0,0,24.58,28.14Z"/><path d="M23.38,28.11a.29.29,0,0,0,0,.57A.29.29,0,0,0,23.38,28.11Z"/><path d="M23.9,28.86a.29.29,0,0,0,0,.57A.29.29,0,0,0,23.9,28.86Z"/><path d="M19.94,29.38a.29.29,0,0,0,0,.57A.29.29,0,0,0,19.94,29.38Z"/><path d="M21.11,30.27a.29.29,0,0,0,0-.57A.29.29,0,0,0,21.11,30.27Z"/><path d="M19,30.48a.29.29,0,0,0,0,.57A.29.29,0,0,0,19,30.48Z"/><path d="M17.05,29.56a.29.29,0,0,0,0-.57A.29.29,0,0,0,17.05,29.56Z"/><path d="M18.14,30c.33-.16,0-.65-.29-.49l-.07,0c-.33.17,0,.66.29.5Z"/><path d="M18.17,30.13l-.06,0c-.33.17,0,.66.29.5l.06,0C18.79,30.46,18.5,30,18.17,30.13Z"/><path d="M18.67,29.72a.26.26,0,0,0,.25-.16s0,0,0,.07v0a.29.29,0,0,0,.57,0v0a.29.29,0,0,0-.54-.13.28.28,0,0,0-.27-.35A.29.29,0,0,0,18.67,29.72Z"/><path d="M18.32,29a.29.29,0,0,0,0-.57h0a.29.29,0,0,0,0,.57Z"/><path d="M20.1,28.39a.29.29,0,0,0,0-.57A.29.29,0,0,0,20.1,28.39Z"/><path d="M20.82,29l0,0a.29.29,0,0,0-.4-.41l0,0A.28.28,0,0,0,20.82,29Z"/><path d="M19.48,28.91a.29.29,0,0,0,0-.57A.29.29,0,0,0,19.48,28.91Z"/><path d="M23.31,27.81v0a.29.29,0,0,0-.58,0v0A.29.29,0,0,0,23.31,27.81Z"/><path d="M24.87,27.33a.29.29,0,0,0,0,.57A.29.29,0,0,0,24.87,27.33Z"/><path d="M25.48,28h0a.29.29,0,0,0,0,.57h0A.29.29,0,0,0,25.48,28Z"/><path d="M24.38,26a.29.29,0,0,0,0,.57A.29.29,0,0,0,24.38,26Z"/><path d="M23.53,26.84c-.27.24.14.65.41.4l0,0c.28-.25-.13-.65-.4-.41Z"/><path d="M22.31,25.58a.29.29,0,0,0,0,.57A.29.29,0,0,0,22.31,25.58Z"/><path d="M23.44,25a.29.29,0,0,0,0,.57h0a.29.29,0,0,0,0-.57Z"/><path d="M22.83,24.43a.29.29,0,0,0,0-.57A.29.29,0,0,0,22.83,24.43Z"/><path d="M22.27,24.41a.29.29,0,0,0,0,.58h0a.29.29,0,0,0,0-.58Z"/><path d="M21.07,25.47h0a.29.29,0,0,0,0-.57h0A.29.29,0,0,0,21.07,25.47Z"/><path d="M20.62,24.28a.29.29,0,0,0,0,.58A.29.29,0,0,0,20.62,24.28Z"/><path d="M24.25,24.6a.29.29,0,0,0,0-.58A.29.29,0,0,0,24.25,24.6Z"/><path d="M25.77,25.54v0a.29.29,0,0,0-.57,0v0A.29.29,0,0,0,25.77,25.54Z"/><path d="M25.19,26.8a.29.29,0,0,0,0-.57A.29.29,0,0,0,25.19,26.8Z"/><path d="M16.62,28.4a.29.29,0,0,0-.57,0v.06a.29.29,0,0,0,.57,0Z"/><path d="M15.46,27.66a.29.29,0,0,0,0,.57A.29.29,0,0,0,15.46,27.66Z"/><path d="M15.89,26.46a.29.29,0,0,0,0,.57A.29.29,0,0,0,15.89,26.46Z"/><path d="M16.58,26.3c.16.33.66,0,.49-.29L17,26c-.16-.33-.66,0-.49.29Z"/><path d="M17.8,27.71a.29.29,0,0,0,0-.57A.29.29,0,0,0,17.8,27.71Z"/><path d="M16.11,24.76a.29.29,0,0,0,0-.57A.29.29,0,0,0,16.11,24.76Z"/><path d="M14.85,24.09a.29.29,0,0,0,0,.57A.29.29,0,0,0,14.85,24.09Z"/><path d="M15.89,23.17a.29.29,0,0,0,0-.57A.29.29,0,0,0,15.89,23.17Z"/><path d="M18,25.34a.29.29,0,0,0,0-.57A.29.29,0,0,0,18,25.34Z"/><path d="M19.32,27.26a.29.29,0,0,0,0-.58A.29.29,0,0,0,19.32,27.26Z"/><path d="M18.32,26.51a.29.29,0,0,0,0-.57A.29.29,0,0,0,18.32,26.51Z"/><path d="M16.12,27.46v0a.29.29,0,0,0,.57,0v0A.29.29,0,0,0,16.12,27.46Z"/><path d="M14.59,25.35a.29.29,0,0,0,0,.58A.29.29,0,0,0,14.59,25.35Z"/><path d="M19.46,22.66v0a.29.29,0,0,0,.57,0v0A.29.29,0,0,0,19.46,22.66Z"/><path d="M18.29,21.17a.29.29,0,0,0,0,.57A.29.29,0,0,0,18.29,21.17Z"/><path d="M18,20a.29.29,0,0,0,0,.57A.29.29,0,0,0,18,20Z"/><path d="M20.39,21.51a.29.29,0,0,0,0-.57h0a.29.29,0,0,0,0,.57Z"/><path d="M19.58,23.41a.29.29,0,0,0,0,.57A.29.29,0,0,0,19.58,23.41Z"/><path d="M21.57,23.28l0,0c.26-.26-.14-.67-.4-.41l0,0C20.9,23.14,21.31,23.54,21.57,23.28Z"/><path d="M23.21,23.59a.29.29,0,0,0,0-.57A.29.29,0,0,0,23.21,23.59Z"/><path d="M22.11,22.59h0a.29.29,0,0,0,0-.58h0A.29.29,0,0,0,22.11,22.59Z"/><path d="M22.92,26.13a.29.29,0,0,0,0,.57A.29.29,0,0,0,22.92,26.13Z"/><path d="M24.64,25.44a.29.29,0,0,0,0-.57A.29.29,0,0,0,24.64,25.44Z"/><path d="M31.37,45.07a.29.29,0,0,0,0,.57h.05a.29.29,0,0,0,0-.57Z"/><path d="M30.38,42.91a.29.29,0,0,0,0,.58A.29.29,0,0,0,30.38,42.91Z"/><path d="M30.89,42.83a.29.29,0,0,0,0-.57A.29.29,0,0,0,30.89,42.83Z"/><path d="M31.46,43.38a.29.29,0,0,0,0,.57A.29.29,0,0,0,31.46,43.38Z"/><path d="M32,42.77a.29.29,0,0,0,0,.58A.29.29,0,0,0,32,42.77Z"/><path d="M31.92,41.23a.29.29,0,0,0,0,.57A.29.29,0,0,0,31.92,41.23Z"/><path d="M32,40.15a.29.29,0,0,0,0,.58A.29.29,0,0,0,32,40.15Z"/><path d="M33.76,44.51l-.13.05h0a.29.29,0,0,0,0,.57h0a.26.26,0,0,0,.15,0l.14,0C34.26,45,34.11,44.39,33.76,44.51Z"/><path d="M34,44v.05a.29.29,0,0,0,.58,0V44A.29.29,0,0,0,34,44Z"/><path d="M33.56,44.42a.27.27,0,0,0,.26-.37.19.19,0,0,0,0-.13,1.62,1.62,0,0,0,0-.19c-.08-.35-.63-.2-.55.16l0,.18,0,0A.27.27,0,0,0,33.56,44.42Z"/><path d="M33.61,42.92a.29.29,0,0,0,0-.57A.29.29,0,0,0,33.61,42.92Z"/><path d="M34.17,42.69a.29.29,0,0,0,0-.57A.29.29,0,0,0,34.17,42.69Z"/><path d="M34.36,43a.29.29,0,0,0,0,.57A.29.29,0,0,0,34.36,43Z"/><path d="M34.4,41.75v0a.29.29,0,0,0,.57,0v0A.29.29,0,0,0,34.4,41.75Z"/><path d="M33.7,41.9a.29.29,0,0,0,0-.58A.29.29,0,0,0,33.7,41.9Z"/><path d="M34,40.54A.29.29,0,0,0,34,40,.29.29,0,0,0,34,40.54Z"/><path d="M34.5,39.36a.29.29,0,0,0,0,.57A.29.29,0,0,0,34.5,39.36Z"/><path d="M35.1,38.89a.29.29,0,0,0,0,.57A.29.29,0,0,0,35.1,38.89Z"/><path d="M24,36.62l.09-.09c.27-.26-.14-.66-.4-.4l-.1.09C23.37,36.47,23.77,36.88,24,36.62Z"/><path d="M22.75,36.94h.05a.29.29,0,0,0,0-.58h-.05A.29.29,0,0,0,22.75,36.94Z"/><path d="M30.38,39.84a.29.29,0,0,0,0-.58A.29.29,0,0,0,30.38,39.84Z"/><path d="M30.34,41.52v-.1a.29.29,0,0,0-.57,0v.1A.29.29,0,0,0,30.34,41.52Z"/><path d="M30.1,42.12a.29.29,0,0,0,0,.57A.29.29,0,0,0,30.1,42.12Z"/><path d="M31.27,41.47v-.09a.29.29,0,0,0-.57,0v.09A.29.29,0,0,0,31.27,41.47Z"/><path d="M31.64,42.74a.29.29,0,0,0,0-.57A.29.29,0,0,0,31.64,42.74Z"/><path d="M31.18,40.2a.29.29,0,0,0,0,.57A.29.29,0,0,0,31.18,40.2Z"/><path d="M30.61,43.48a.29.29,0,0,0,0,.57A.29.29,0,0,0,30.61,43.48Z"/><path d="M30,40.48a.29.29,0,0,0,0,.57A.29.29,0,0,0,30,40.48Z"/><path d="M31.22,39.65a.29.29,0,0,0,0-.57A.29.29,0,0,0,31.22,39.65Z"/><path d="M32,38.53A.29.29,0,0,0,32,38,.29.29,0,0,0,32,38.53Z"/><path d="M30.15,38.67a.29.29,0,0,0,0-.57A.29.29,0,0,0,30.15,38.67Z"/><path d="M29.49,37.53a.29.29,0,0,0,0,.58A.29.29,0,0,0,29.49,37.53Z"/><path d="M29.54,36.51h0a.29.29,0,0,0,0-.57h0A.29.29,0,0,0,29.54,36.51Z"/><path d="M30.71,37a.29.29,0,0,0,0-.57A.29.29,0,0,0,30.71,37Z"/><path d="M31.5,35.52a.29.29,0,0,0,0,.57A.29.29,0,0,0,31.5,35.52Z"/><path d="M31.22,34.54h0a.29.29,0,0,0,0,.57h0A.29.29,0,0,0,31.22,34.54Z"/><path d="M30.19,33.88a.29.29,0,0,0,0,.58A.29.29,0,0,0,30.19,33.88Z"/><path d="M34.08,38.43a.29.29,0,0,0,0-.57A.29.29,0,0,0,34.08,38.43Z"/><path d="M34.64,41.1a.29.29,0,0,0,0-.57h0a.29.29,0,0,0,0,.57Z"/><path d="M35.1,37.68a.29.29,0,0,0,0-.57A.29.29,0,0,0,35.1,37.68Z"/><path d="M33.65,37.12a.29.29,0,0,0,0-.57A.29.29,0,0,0,33.65,37.12Z"/><path d="M34.22,35.58a.29.29,0,0,0,0-.57A.29.29,0,0,0,34.22,35.58Z"/><path d="M35.34,35a.29.29,0,0,0,0,.57A.29.29,0,0,0,35.34,35Z"/><path d="M34.87,35.9a.29.29,0,0,0,0,.57A.29.29,0,0,0,34.87,35.9Z"/><path d="M34.64,34a.29.29,0,0,0,0-.58A.29.29,0,0,0,34.64,34Z"/><path d="M34,33.43a.29.29,0,0,0,0-.57A.29.29,0,0,0,34,33.43Z"/><path d="M33.89,31.56a.25.25,0,0,0,.23-.14.4.4,0,0,0,.56-.58.27.27,0,0,0-.27.25.28.28,0,0,0-.25.13.27.27,0,0,0-.27-.24A.29.29,0,0,0,33.89,31.56Z"/><path d="M35.34,32.77a.29.29,0,0,0,0-.57A.29.29,0,0,0,35.34,32.77Z"/><path d="M35.62,33.18a.29.29,0,0,0,0,.57A.29.29,0,0,0,35.62,33.18Z"/><path d="M30.52,33a.29.29,0,0,0,0-.57A.29.29,0,0,0,30.52,33Z"/><path d="M31.83,32.06a.29.29,0,0,0,0,.57A.29.29,0,0,0,31.83,32.06Z"/><path d="M31.83,33.37a.29.29,0,0,0,0,.57A.29.29,0,0,0,31.83,33.37Z"/><path d="M32,36.46v0a.29.29,0,0,0-.57,0v0A.29.29,0,0,0,32,36.46Z"/><path d="M31.08,37.39a.29.29,0,0,0,0,.58A.29.29,0,0,0,31.08,37.39Z"/><path d="M29.39,34.78v0a.29.29,0,0,0,.57,0v0A.29.29,0,0,0,29.39,34.78Z"/><path d="M29.58,32.73a.29.29,0,0,0,0-.58A.29.29,0,0,0,29.58,32.73Z"/><path d="M30.75,31.51a.29.29,0,0,0,0-.57A.29.29,0,0,0,30.75,31.51Z"/><path d="M30,29.73a.29.29,0,0,0,0-.57A.29.29,0,0,0,30,29.73Z"/><path d="M31.08,27.35a.29.29,0,0,0,0-.58A.29.29,0,0,0,31.08,27.35Z"/><path d="M31.53,29.18c.26.26.67-.14.41-.4l-.05-.05a.28.28,0,0,0-.4.4Z"/><path d="M31.78,25.42a.29.29,0,0,0,0,.57h0a.29.29,0,0,0,0-.57Z"/><path d="M33.89,29.78a.29.29,0,0,0,0-.57A.29.29,0,0,0,33.89,29.78Z"/><path d="M34.36,32.2a.29.29,0,0,0,0,.57A.29.29,0,0,0,34.36,32.2Z"/><path d="M35.62,30.43a.29.29,0,0,0,0-.57A.29.29,0,0,0,35.62,30.43Z"/><path d="M34.92,28.09a.29.29,0,0,0,0-.57A.29.29,0,0,0,34.92,28.09Z"/><path d="M35,26.64a.29.29,0,0,0,0-.57A.29.29,0,0,0,35,26.64Z"/><path d="M37.7,32.31a.29.29,0,0,0-.21-.48.28.28,0,0,0-.25.39l-.09.06,0,0a.29.29,0,0,0,.3.47l0,0c.31.2.59-.29.29-.5Z"/><path d="M38.57,31.12h0a.29.29,0,0,0-.22.46.29.29,0,0,0,.21.47.28.28,0,0,0,.24-.42A.29.29,0,0,0,38.57,31.12Z"/><path d="M37.63,29.65c-.09-.36-.64-.21-.56.15l0,.19c.09.36.64.2.55-.15Z"/><path d="M37.72,28.09a.29.29,0,0,0,0-.57A.29.29,0,0,0,37.72,28.09Z"/><path d="M38,29.31a.29.29,0,0,0,0-.57A.29.29,0,0,0,38,29.31Z"/><path d="M38.57,29.67a.29.29,0,0,0,0,.58h0a.29.29,0,0,0,0-.58Z"/><path d="M39.46,29.86a.29.29,0,0,0,0,.57A.29.29,0,0,0,39.46,29.86Z"/><path d="M39.6,29.3a.29.29,0,0,0,0,.57A.29.29,0,0,0,39.6,29.3Z"/><path d="M39,28.84a.29.29,0,0,0,0-.57A.29.29,0,0,0,39,28.84Z"/><path d="M39.22,30.75a.29.29,0,0,0,0,.57A.29.29,0,0,0,39.22,30.75Z"/><path d="M38,30.19a.29.29,0,0,0,0,.57A.29.29,0,0,0,38,30.19Z"/><path d="M38.32,27.75v.05a.29.29,0,0,0,.57,0v-.05A.29.29,0,0,0,38.32,27.75Z"/><path d="M39.69,28.32a.29.29,0,0,0,0-.57A.29.29,0,0,0,39.69,28.32Z"/><path d="M40.16,29.22a.29.29,0,0,0,0-.57A.29.29,0,0,0,40.16,29.22Z"/><path d="M41.25,28.08a.29.29,0,0,0,0,.57A.29.29,0,0,0,41.25,28.08Z"/><path d="M40.35,29.36a.29.29,0,0,0,0,.57A.29.29,0,0,0,40.35,29.36Z"/><path d="M40.73,31.53a.26.26,0,0,0-.27.31.28.28,0,0,0,.22.45A.27.27,0,0,0,41,32,.28.28,0,0,0,40.73,31.53Z"/><path d="M41.25,31.29a.29.29,0,0,0-.13.54.28.28,0,0,0,.17.5.29.29,0,0,0,.14-.54A.29.29,0,0,0,41.25,31.29Z"/><path d="M42.62,31.15a.28.28,0,0,0-.24.13V31.2a.29.29,0,0,0-.57,0v.09a.29.29,0,0,0,.53.15.27.27,0,0,0,.28.28A.29.29,0,0,0,42.62,31.15Z"/><path d="M42.9,30.54a.29.29,0,0,0,0,.57A.29.29,0,0,0,42.9,30.54Z"/><path d="M42.71,30.11v.05a.29.29,0,0,0,.57,0v-.05A.29.29,0,0,0,42.71,30.11Z"/><path d="M42.24,29.78a.29.29,0,0,0,0,.57A.29.29,0,0,0,42.24,29.78Z"/><path d="M43.47,29.26a.29.29,0,0,0,0,.57A.29.29,0,0,0,43.47,29.26Z"/><path d="M44.19,30.05c-.26-.26-.67.15-.41.41l0,0a.28.28,0,0,0,.4-.4Z"/><path d="M45.16,30.68a.25.25,0,0,0-.18.07.29.29,0,0,0-.19-.07.29.29,0,0,0,0,.57.26.26,0,0,0,.19-.08.22.22,0,0,0,.18.08A.29.29,0,0,0,45.16,30.68Z"/><path d="M43.89,30.58h0a.29.29,0,0,0,0,.57h0A.29.29,0,0,0,43.89,30.58Z"/><path d="M44.74,30.35a.29.29,0,0,0,0-.57A.29.29,0,0,0,44.74,30.35Z"/><path d="M46.07,29.68a.2.2,0,0,0-.13-.08.28.28,0,1,0-.33.17.27.27,0,0,0,.06.31l0,.05c.26.26.66-.15.4-.41Z"/><path d="M47.15,30.64h0a.29.29,0,0,0,0-.58h0A.29.29,0,0,0,47.15,30.64Z"/><path d="M44.88,29.36v-.09a.29.29,0,0,0,.14,0,.29.29,0,0,0,0-.57.27.27,0,0,0-.26.34.29.29,0,0,0-.45.23v.05A.29.29,0,0,0,44.88,29.36Z"/><path d="M44.27,28.46a.28.28,0,0,0,.22-.44l.06,0c.33.17.62-.32.29-.49l-.1-.05a.29.29,0,0,0-.38.41l-.09,0A.29.29,0,0,0,44.27,28.46Z"/><path d="M43.42,29.08a.25.25,0,0,0,.21-.11.25.25,0,0,0,.17.06.29.29,0,0,0,0-.57.27.27,0,0,0-.22.1.25.25,0,0,0-.16,0A.29.29,0,0,0,43.42,29.08Z"/><path d="M46.49,29.31a.29.29,0,0,0,0-.57A.29.29,0,0,0,46.49,29.31Z"/><path d="M39,30.54a.29.29,0,0,0-.57,0v.05a.29.29,0,0,0,.57,0Z"/><path d="M39.83,27.24a.29.29,0,0,0,0-.57A.29.29,0,0,0,39.83,27.24Z"/><path d="M38.38,26.87l0-.05c.26-.26-.14-.66-.41-.4l0,0A.28.28,0,0,0,38.38,26.87Z"/><path d="M40,25.4a.29.29,0,0,0,0-.58A.29.29,0,0,0,40,25.4Z"/><path d="M41.34,26.15a.29.29,0,0,0,0-.57A.29.29,0,0,0,41.34,26.15Z"/><path d="M42.43,26.24a.29.29,0,0,0,0,.57A.29.29,0,0,0,42.43,26.24Z"/><path d="M41.47,27.08a.28.28,0,0,0,.4.4l.15-.14c.26-.26-.15-.66-.41-.4Z"/><path d="M43.75,25.35a.29.29,0,0,0,0-.57A.29.29,0,0,0,43.75,25.35Z"/><path d="M42.14,25.4a.29.29,0,0,0,0-.58A.29.29,0,0,0,42.14,25.4Z"/><path d="M42.52,23.79a.29.29,0,0,0,0-.57A.29.29,0,0,0,42.52,23.79Z"/><path d="M43.23,22.94a.29.29,0,0,0,0,.57A.29.29,0,0,0,43.23,22.94Z"/><path d="M40.87,24.16a.29.29,0,0,0,0,.58h.05a.29.29,0,0,0,0-.58Z"/><path d="M40.68,23.84a.29.29,0,0,0,0-.57A.29.29,0,0,0,40.68,23.84Z"/><path d="M43.89,22.56a.29.29,0,0,0,0-.57A.29.29,0,0,0,43.89,22.56Z"/><path d="M45.73,21.29a.29.29,0,0,0,0-.57A.29.29,0,0,0,45.73,21.29Z"/><path d="M45.35,23.13a.29.29,0,0,0,0-.57A.29.29,0,0,0,45.35,23.13Z"/><path d="M48,20.16a.29.29,0,0,0,0-.57A.29.29,0,0,0,48,20.16Z"/><path d="M44.5,24.69a.29.29,0,0,0,0-.57A.29.29,0,0,0,44.5,24.69Z"/><path d="M46,26.37l0,.05a.28.28,0,0,0,.4.4l0,0C46.62,26.52,46.21,26.11,46,26.37Z"/><path d="M45.68,28.61a.29.29,0,0,0,0-.58A.29.29,0,0,0,45.68,28.61Z"/><path d="M47.29,28.46a.29.29,0,0,0,0-.57A.29.29,0,0,0,47.29,28.46Z"/><path d="M46.11,27.9a.29.29,0,0,0,0-.57A.29.29,0,0,0,46.11,27.9Z"/><path d="M45.21,27a.29.29,0,0,0,0-.57A.29.29,0,0,0,45.21,27Z"/><path d="M47.86,28.32a.29.29,0,0,0,0,.57A.29.29,0,0,0,47.86,28.32Z"/><path d="M47.15,29.93a.29.29,0,0,0,0-.57A.29.29,0,0,0,47.15,29.93Z"/><path d="M48.53,29.25c-.26-.26-.67.14-.41.4l.05.05c.26.26.67-.14.41-.4Z"/><path d="M49.37,28.28a.29.29,0,0,0,0-.58A.29.29,0,0,0,49.37,28.28Z"/><path d="M48.47,28a.29.29,0,0,0,0-.57A.29.29,0,0,0,48.47,28Z"/><path d="M47.57,26.71a.29.29,0,0,0,0,.57A.29.29,0,0,0,47.57,26.71Z"/><path d="M48.75,26a.29.29,0,0,0,0-.57A.29.29,0,0,0,48.75,26Z"/><path d="M47.67,24.83v0a.29.29,0,0,0-.57,0v0A.29.29,0,0,0,47.67,24.83Z"/><path d="M47.34,26.29a.29.29,0,0,0,0-.57A.29.29,0,0,0,47.34,26.29Z"/><path d="M49.74,24.31h0a.29.29,0,0,0,0-.57h0A.29.29,0,0,0,49.74,24.31Z"/><path d="M50.83,22.09a.29.29,0,0,0,0-.57A.29.29,0,0,0,50.83,22.09Z"/><path d="M49.41,22.38a.29.29,0,0,0,0-.58A.29.29,0,0,0,49.41,22.38Z"/><path d="M48,24.26h.05a.29.29,0,0,0,0-.57H48A.29.29,0,0,0,48,24.26Z"/><path d="M50.45,25.07a.29.29,0,0,0,0-.58A.29.29,0,0,0,50.45,25.07Z"/><path d="M52.06,20.11a.29.29,0,0,0,0-.57A.29.29,0,0,0,52.06,20.11Z"/><path d="M49.74,25.82a.29.29,0,0,0,0,.57A.29.29,0,0,0,49.74,25.82Z"/><path d="M46.54,19.54v-.05a.29.29,0,0,0-.58,0v.05A.29.29,0,0,0,46.54,19.54Z"/><path d="M46.86,21.9a.29.29,0,0,0,0-.57A.29.29,0,0,0,46.86,21.9Z"/><path d="M43.18,22.23a.29.29,0,0,0,0-.57A.29.29,0,0,0,43.18,22.23Z"/><path d="M38.29,36.28a.29.29,0,0,0,0,.57A.29.29,0,0,0,38.29,36.28Z"/><path d="M38.64,37.61a.29.29,0,0,0,0-.57A.29.29,0,0,0,38.64,37.61Z"/><path d="M37.87,39.18a.27.27,0,0,0,.21.1.29.29,0,0,0,0-.57.24.24,0,0,0-.23.13.29.29,0,0,0-.21-.09.29.29,0,0,0,0,.57A.24.24,0,0,0,37.87,39.18Z"/><path d="M37.76,39.87a.29.29,0,0,0,0,.57A.29.29,0,0,0,37.76,39.87Z"/><path d="M39.3,36.29v0a.29.29,0,0,0-.07-.18.16.16,0,0,0,.1,0,.29.29,0,0,0,0-.57.29.29,0,0,0-.21.48.28.28,0,0,0-.4.25v0A.29.29,0,0,0,39.3,36.29Z"/><path d="M40,35.2v0a.29.29,0,0,0-.57,0v0A.29.29,0,0,0,40,35.2Z"/><path d="M39.8,37.23l-.08,0a.29.29,0,1,0-.27.2.25.25,0,0,0,.13,0s0,0,0,.07v0a.29.29,0,0,0,.57,0v0a.29.29,0,0,0,0-.09.28.28,0,0,0-.06-.56A.28.28,0,0,0,39.8,37.23Z"/><path d="M40.62,34.81l.07,0a.27.27,0,0,0,.21.1.29.29,0,0,0,0-.58l-.07,0a.24.24,0,0,0-.21-.1A.29.29,0,0,0,40.62,34.81Z"/><path d="M40.63,36v0a.28.28,0,0,0,0-.13h.07a.28.28,0,0,0,.26-.39.25.25,0,0,0,.18.07.29.29,0,1,0-.25-.17.26.26,0,0,0-.19-.08.29.29,0,0,0-.24.43.28.28,0,0,0-.37.26v0A.29.29,0,0,0,40.63,36Z"/><path d="M42.43,35.61a.29.29,0,0,0,0-.57A.29.29,0,0,0,42.43,35.61Z"/><path d="M41.15,34.2a.29.29,0,0,0,0-.57A.29.29,0,0,0,41.15,34.2Z"/><path d="M41.67,34.64a.29.29,0,0,0,0-.57A.29.29,0,0,0,41.67,34.64Z"/><path d="M38.93,37.86a.25.25,0,0,0-.15,0,.25.25,0,0,0-.25-.17.29.29,0,0,0,0,.57.25.25,0,0,0,.15-.05.25.25,0,0,0,.25.17A.29.29,0,0,0,38.93,37.86Z"/><path d="M38.93,39.11a.29.29,0,0,0,0,.57A.29.29,0,0,0,38.93,39.11Z"/><path d="M38.12,37.3a.29.29,0,0,0,0,.57A.29.29,0,0,0,38.12,37.3Z"/><path d="M37.68,43.94a.29.29,0,0,0,0,.58A.29.29,0,0,0,37.68,43.94Z"/><path d="M37.67,43.3a.28.28,0,0,0-.23-.44.26.26,0,0,0-.27.25.28.28,0,0,0,.23.44A.27.27,0,0,0,37.67,43.3Z"/><path d="M38.37,42.86v0a.29.29,0,0,0-.57,0v0A.29.29,0,0,0,38.37,42.86Z"/><path d="M38.28,40.6a.29.29,0,0,0,0,.57A.29.29,0,0,0,38.28,40.6Z"/><path d="M39.05,41.57a.29.29,0,0,0,0-.57A.29.29,0,0,0,39.05,41.57Z"/><path d="M39.09,42.13a.29.29,0,0,0,0,.57A.29.29,0,0,0,39.09,42.13Z"/><path d="M38.49,40.16a.29.29,0,0,0,0-.57A.29.29,0,0,0,38.49,40.16Z"/><path d="M39.65,38.46a.29.29,0,0,0,0,.58A.29.29,0,0,0,39.65,38.46Z"/><path d="M38.57,43.54a.27.27,0,0,0-.22.1.28.28,0,0,0,.1.55.27.27,0,0,0,.21-.1A.28.28,0,0,0,38.57,43.54Z"/><path d="M39.41,43.34a.29.29,0,0,0,0,.57A.29.29,0,0,0,39.41,43.34Z"/><path d="M38.89,44.15a.29.29,0,0,0,0,.57A.29.29,0,0,0,38.89,44.15Z"/><path d="M40.14,43.9a.29.29,0,0,0,0,.58A.29.29,0,0,0,40.14,43.9Z"/><path d="M41.31,44.06l-.06,0a.29.29,0,0,0-.23-.46h0a.29.29,0,0,0,0,.57h.1a.29.29,0,1,0,.23-.12Z"/><path d="M40.26,42.17a.29.29,0,0,0,0,.57A.29.29,0,0,0,40.26,42.17Z"/><path d="M40.94,43.06a.29.29,0,0,0,0-.57A.29.29,0,0,0,40.94,43.06Z"/><path d="M42.11,42.65a.29.29,0,0,0,0,.58A.29.29,0,0,0,42.11,42.65Z"/><path d="M41.19,41.37a.29.29,0,0,0,0-.57A.29.29,0,0,0,41.19,41.37Z"/><path d="M39.9,41a.29.29,0,0,0,0-.57A.29.29,0,0,0,39.9,41Z"/><path d="M40.06,39.92a.29.29,0,0,0,0-.57A.29.29,0,0,0,40.06,39.92Z"/><path d="M41.09,39.2c.33-.17,0-.66-.29-.5l-.07,0a.26.26,0,0,0-.27-.28h0a.29.29,0,0,0,0,.58h.08a.3.3,0,0,0,.43.25Z"/><path d="M41.47,37.7a.29.29,0,0,0,0,.57A.29.29,0,0,0,41.47,37.7Z"/><path d="M41.19,36.61a.29.29,0,0,0,0,.57A.29.29,0,0,0,41.19,36.61Z"/><path d="M42,36.42a.29.29,0,0,0,0-.57A.29.29,0,0,0,42,36.42Z"/><path d="M42.52,33.72a.29.29,0,0,0,0-.57A.29.29,0,0,0,42.52,33.72Z"/><path d="M40.5,37.38l0,0a.28.28,0,0,0,.4.4l0,0A.28.28,0,0,0,40.5,37.38Z"/><path d="M42.43,39.27h0a.29.29,0,0,0,0,.57h0A.29.29,0,0,0,42.43,39.27Z"/><path d="M41.39,40.32v0a.29.29,0,0,0-.57,0v0A.29.29,0,0,0,41.39,40.32Z"/><path d="M40.14,41.73l.08-.08c.26-.26-.15-.66-.41-.4l-.08.08C39.47,41.59,39.88,42,40.14,41.73Z"/><path d="M39.78,42.45a.29.29,0,0,0,0,.57A.29.29,0,0,0,39.78,42.45Z"/><path d="M41.83,41.45a.29.29,0,0,0,0,.57A.29.29,0,0,0,41.83,41.45Z"/><path d="M43.4,42.14a.29.29,0,0,0,0-.57A.29.29,0,0,0,43.4,42.14Z"/><path d="M44.45,41.57a.29.29,0,0,0,0,.57A.29.29,0,0,0,44.45,41.57Z"/><path d="M43.44,43h0a.29.29,0,0,0,0,.57h0A.29.29,0,0,0,43.44,43Z"/><path d="M42.35,44l0,0c-.26.26.15.66.41.4l0,0C43,44.09,42.61,43.69,42.35,44Z"/><path d="M43.84,37.46a.29.29,0,0,0,0,.57A.29.29,0,0,0,43.84,37.46Z"/><path d="M42.8,37.67a.29.29,0,0,0,0-.58A.29.29,0,0,0,42.8,37.67Z"/><path d="M43.4,36.74l.08-.08c.26-.26-.14-.67-.4-.41l-.08.08C42.74,36.59,43.14,37,43.4,36.74Z"/><path d="M44.21,34.92a.29.29,0,0,0,0,.57A.29.29,0,0,0,44.21,34.92Z"/><path d="M44,34.08a.29.29,0,0,0,0-.57A.29.29,0,0,0,44,34.08Z"/><path d="M44.53,32.82a.29.29,0,0,0,0,.58A.29.29,0,0,0,44.53,32.82Z"/><path d="M46.06,34a.29.29,0,0,0,0-.57A.29.29,0,0,0,46.06,34Z"/><path d="M43.36,34.77h0a.29.29,0,0,0,0-.58h0A.29.29,0,0,0,43.36,34.77Z"/><path d="M45.66,36.25a.29.29,0,0,0,0,.57A.29.29,0,0,0,45.66,36.25Z"/><path d="M43.44,38.06a.29.29,0,0,0,0,.57A.29.29,0,0,0,43.44,38.06Z"/><path d="M45.09,40.16a.29.29,0,0,0,0-.57A.29.29,0,0,0,45.09,40.16Z"/><path d="M46.26,39.11a.29.29,0,0,0,0,.57A.29.29,0,0,0,46.26,39.11Z"/><path d="M43.2,39.87a.29.29,0,0,0,0,.58A.29.29,0,0,0,43.2,39.87Z"/><path d="M43.32,41c.26-.26-.14-.67-.4-.41l0,0c-.26.26.14.67.4.41Z"/><path d="M46.18,40.52a.29.29,0,0,0,0,.57A.29.29,0,0,0,46.18,40.52Z"/><path d="M45.3,41.77a.29.29,0,0,0-.41.41l0,0c.26.26.67-.15.41-.41Z"/><path d="M44.25,43.1h0a.29.29,0,0,0,0,.57h0A.29.29,0,0,0,44.25,43.1Z"/><path d="M48.64,39.32l-.08.08c-.26.26.15.66.41.4l.08-.08C49.31,39.46,48.9,39.06,48.64,39.32Z"/><path d="M48.36,36.69a.29.29,0,0,0,0,.57A.29.29,0,0,0,48.36,36.69Z"/><path d="M49.44,35.4a.29.29,0,0,0,0,.57A.29.29,0,0,0,49.44,35.4Z"/><path d="M50.49,34.52a.29.29,0,0,0,0,.57A.29.29,0,0,0,50.49,34.52Z"/><path d="M50.13,32.54a.29.29,0,0,0,0,.57A.29.29,0,0,0,50.13,32.54Z"/><path d="M51.7,32.46a.29.29,0,0,0,0,.57A.29.29,0,0,0,51.7,32.46Z"/><path d="M48.24,34.07a.29.29,0,0,0,0,.57A.29.29,0,0,0,48.24,34.07Z"/><path d="M36.94,41.07a.29.29,0,0,0,0,.57A.29.29,0,0,0,36.94,41.07Z"/><path d="M39.52,40.41l0,0c.16-.33-.33-.62-.5-.29l0,0C38.86,40.45,39.35,40.74,39.52,40.41Z"/><path d="M38.61,42.1a.29.29,0,0,0,0-.57A.29.29,0,0,0,38.61,42.1Z"/><path d="M40.79,40.51v0a.29.29,0,0,0-.57,0v0A.29.29,0,0,0,40.79,40.51Z"/><path d="M38.65,43.35a.29.29,0,0,0,0-.57A.29.29,0,0,0,38.65,43.35Z"/><path d="M42,40.53v0a.29.29,0,0,0,.57,0v0A.29.29,0,0,0,42,40.53Z"/><path d="M44.34,39.61a.29.29,0,0,0,0-.57A.29.29,0,0,0,44.34,39.61Z"/><path d="M45.85,37.74a.29.29,0,0,0,0,.57A.29.29,0,0,0,45.85,37.74Z"/><path d="M26.17,21.43c.27-.26-.14-.66-.4-.4l0,0a.28.28,0,0,0,.08.45.28.28,0,1,0,.24,0l.09-.06Z"/><path d="M26.74,21.41a.29.29,0,0,0,0,.57A.29.29,0,0,0,26.74,21.41Z"/><path d="M25.2,21.51h0a.29.29,0,0,0,0,.57h0A.29.29,0,0,0,25.2,21.51Z"/><path d="M24.62,20.36a.29.29,0,0,0,0,.57A.29.29,0,0,0,24.62,20.36Z"/><path d="M25.63,20.64a.29.29,0,0,0,0-.57l-.09,0a.28.28,0,0,0-.24-.42.29.29,0,0,0,0,.57l.1,0a.29.29,0,0,0,0,.27.25.25,0,0,0-.19.08l-.1.1c-.26.26.14.67.4.4l.11-.1A.26.26,0,0,0,25.63,20.64Z"/><path d="M24.31,21.28a.29.29,0,0,0,0,.57A.29.29,0,0,0,24.31,21.28Z"/><path d="M28.12,21.3a.29.29,0,0,0,0,.57A.29.29,0,0,0,28.12,21.3Z"/><path d="M28.56,20.69a.29.29,0,0,0,0,.57A.29.29,0,0,0,28.56,20.69Z"/><path d="M27.87,22.69a.28.28,0,0,0-.13-.07.27.27,0,0,0,.18-.26v0a.29.29,0,0,0-.57,0v0a.25.25,0,0,0,.23.26.29.29,0,0,0-.12.47h0l.06,0a.29.29,0,0,0-.19.38.28.28,0,0,0-.13,0,.29.29,0,0,0-.31.47l0,0a.26.26,0,0,0,.32.05.28.28,0,0,0,.4-.25v-.05a.2.2,0,0,0,0-.09.28.28,0,0,0,.25-.24s0,0,0,.05l0,0a.28.28,0,0,0,0,.13v0a.28.28,0,0,0,.05.16h-.07a.29.29,0,1,0,.22.11.28.28,0,0,0,.37-.26v0a.25.25,0,0,0-.11-.21l.05-.05a.29.29,0,0,0-.12-.55.24.24,0,0,0-.21.1L28,23l-.12.1a.25.25,0,0,0-.08.15.3.3,0,0,0-.08-.08.29.29,0,0,0,.14-.47Z"/><path d="M30,21.13a.29.29,0,0,0,0-.57A.29.29,0,0,0,30,21.13Z"/><path d="M26.92,20.23a.28.28,0,0,0-.28.28.25.25,0,0,0-.26-.2.29.29,0,0,0,0,.57.28.28,0,0,0,.28-.28.25.25,0,0,0,.26.2A.29.29,0,0,0,26.92,20.23Z"/><path d="M27.78,21.66l0-.1a.26.26,0,0,0-.17-.32.28.28,0,1,0-.31,0,.27.27,0,0,0-.07.13l0,.1A.29.29,0,0,0,27.78,21.66Z"/><path d="M28,20.48l0-.05c.17-.33-.32-.62-.49-.29l0,.05C27.35,20.52,27.84,20.81,28,20.48Z"/><path d="M28.76,19.31a.29.29,0,0,0,0,.57A.29.29,0,0,0,28.76,19.31Z"/><path d="M29.09,19.72v0a.27.27,0,0,0,.14.24.28.28,0,0,0,.07.55.29.29,0,0,0,.14-.53.25.25,0,0,0,.22-.26v0A.29.29,0,0,0,29.09,19.72Z"/><path d="M29.3,20.74a.29.29,0,0,0,0,.57A.29.29,0,0,0,29.3,20.74Z"/><path d="M31.24,18.85a.29.29,0,0,0,0,.57A.29.29,0,0,0,31.24,18.85Z"/><path d="M30,19.13a.29.29,0,0,0,0,.57A.29.29,0,0,0,30,19.13Z"/><path d="M29.35,19.21a.29.29,0,0,0,0-.57A.29.29,0,0,0,29.35,19.21Z"/><path d="M29.07,17.8a.29.29,0,0,0,0,.57A.29.29,0,0,0,29.07,17.8Z"/><path d="M30.81,18.05a.29.29,0,0,0,0,.58A.29.29,0,0,0,30.81,18.05Z"/><path d="M30.22,18a.29.29,0,0,0,0,.57A.29.29,0,0,0,30.22,18Z"/><path d="M32.42,17.8a.24.24,0,0,0-.25.17l-.08,0a.29.29,0,0,0,0,.57.25.25,0,0,0,.25-.17l.08,0A.29.29,0,0,0,32.42,17.8Z"/><path d="M37.13,21.69a.28.28,0,0,0-.23.44.28.28,0,1,0,.28.12A.28.28,0,0,0,37.13,21.69Z"/><path d="M38.38,21.94a.25.25,0,0,0-.25.17.28.28,0,0,0-.26-.37.29.29,0,0,0,0,.57.26.26,0,0,0,.25-.16.27.27,0,0,0,.26.36A.29.29,0,0,0,38.38,21.94Z"/><path d="M38.92,21.17a.29.29,0,0,0,0,.58A.29.29,0,0,0,38.92,21.17Z"/><path d="M37.79,21.72a.28.28,0,0,0,.24-.43.28.28,0,1,0-.32-.12A.28.28,0,0,0,37.79,21.72Z"/><path d="M36.25,21.82a.29.29,0,0,0-.12-.54.28.28,0,0,0,0,.56.26.26,0,0,0-.17.26h0a.29.29,0,0,0,.57,0h0A.27.27,0,0,0,36.25,21.82Z"/><path d="M35,21.67a.29.29,0,0,0,0-.57A.29.29,0,0,0,35,21.67Z"/><path d="M34.91,20.52a.29.29,0,0,0-.19-.5.27.27,0,0,0-.24.14.26.26,0,0,0-.17-.06.29.29,0,0,0,0,.57l.12,0a.27.27,0,0,0,.27.33A.28.28,0,0,0,34.91,20.52Z"/><path d="M40.32,21.15a.29.29,0,0,0,0,.57A.29.29,0,0,0,40.32,21.15Z"/><path d="M39.48,21.05a.29.29,0,0,0,0,.57A.29.29,0,0,0,39.48,21.05Z"/><path d="M39.74,20.36a.29.29,0,0,0,0,.57A.29.29,0,0,0,39.74,20.36Z"/><path d="M39,20.13a.29.29,0,0,0,0,.57A.29.29,0,0,0,39,20.13Z"/><path d="M39.35,19.51a.29.29,0,0,0,0,.57A.29.29,0,0,0,39.35,19.51Z"/><path d="M40,19.61a.29.29,0,0,0,0,.58A.29.29,0,0,0,40,19.61Z"/><path d="M40.63,20.2a.29.29,0,0,0,0,.57A.29.29,0,0,0,40.63,20.2Z"/><path d="M35.49,20.75a.26.26,0,0,0,.27-.28.27.27,0,0,0,.22.1A.28.28,0,0,0,36,20a.28.28,0,0,0-.21-.47.28.28,0,0,0,0,.56.3.3,0,0,0-.06.18.24.24,0,0,0-.21-.1A.29.29,0,0,0,35.49,20.75Z"/><path d="M34.39,19.72v0a.26.26,0,0,0-.23-.27.28.28,0,0,0-.26-.4h0a.28.28,0,0,0,0,.56.36.36,0,0,0,0,.11v0A.29.29,0,0,0,34.39,19.72Z"/><path d="M33.83,19a.29.29,0,0,0,0-.57A.29.29,0,0,0,33.83,19Z"/><path d="M33.11,18.23a.29.29,0,0,0,0,.57A.29.29,0,0,0,33.11,18.23Z"/><path d="M33.16,17.44a.29.29,0,0,0,0,.57A.29.29,0,0,0,33.16,17.44Z"/><path d="M34.18,18.14a.29.29,0,0,0,0-.57A.29.29,0,0,0,34.18,18.14Z"/><path d="M34.72,18.83a.29.29,0,0,0,0-.57A.29.29,0,0,0,34.72,18.83Z"/><path d="M34.9,19.5a.29.29,0,0,0,0-.58A.29.29,0,0,0,34.9,19.5Z"/><path d="M35.57,21.54a.29.29,0,0,0,0-.57h0a.29.29,0,0,0,0,.57Z"/><path d="M36.69,20.54v0a.29.29,0,0,0,.57,0v0A.29.29,0,0,0,36.69,20.54Z"/><path d="M35.64,21.56a.29.29,0,0,0,0,.57A.29.29,0,0,0,35.64,21.56Z"/><path d="M37.83,20a.29.29,0,0,0-.14-.53.28.28,0,0,0-.19.49.29.29,0,1,0,.33,0Z"/><path d="M36.36,18.31a.29.29,0,0,0,0,.57A.29.29,0,0,0,36.36,18.31Z"/><path d="M37.77,17.11a.29.29,0,0,0-.11.55.28.28,0,0,0,.05.56.29.29,0,0,0,.12-.55A.29.29,0,0,0,37.77,17.11Z"/><path d="M38.33,18h0a.29.29,0,0,0,0,.57h0A.29.29,0,0,0,38.33,18Z"/><path d="M35.41,17.88a.29.29,0,0,0,0-.57A.29.29,0,0,0,35.41,17.88Z"/><path d="M35.54,19.21a.29.29,0,0,0,0-.57A.29.29,0,0,0,35.54,19.21Z"/><path d="M37.38,18.87a.29.29,0,0,0,0,.57A.29.29,0,0,0,37.38,18.87Z"/><path d="M36.4,19.84l.05,0c.32.17.61-.32.28-.49l0,0C36.36,19.18,36.07,19.67,36.4,19.84Z"/><path d="M38.79,19.47a.29.29,0,0,0,0-.57A.29.29,0,0,0,38.79,19.47Z"/><path d="M39.86,18a.29.29,0,0,0,0,.57A.29.29,0,0,0,39.86,18Z"/><path d="M40.68,18.65h0a.29.29,0,1,0,.23.13h0a.29.29,0,1,0-.23-.13Z"/><path d="M41.09,20a.29.29,0,0,0,0-.58A.29.29,0,0,0,41.09,20Z"/><path d="M40.35,16.07a.29.29,0,0,0,0-.57A.29.29,0,0,0,40.35,16.07Z"/><path d="M39.76,17.06a.29.29,0,0,0,0-.57A.29.29,0,0,0,39.76,17.06Z"/><path d="M40.48,18.14a.29.29,0,0,0,0-.57A.29.29,0,0,0,40.48,18.14Z"/><path d="M39.13,17.3A.28.28,0,0,0,39,17a.29.29,0,1,0-.29,0,.29.29,0,0,0,.16.52.24.24,0,0,0,.14-.05.28.28,0,0,0,.27.35.29.29,0,0,0,0-.57A.33.33,0,0,0,39.13,17.3Z"/><path d="M39.25,18.39a.29.29,0,0,0,0,.57.21.21,0,0,0,.12,0,.29.29,0,0,0,.14.54.29.29,0,0,0,0-.57l-.12,0A.29.29,0,0,0,39.25,18.39Z"/><path d="M38.23,19.64a.29.29,0,0,0,0,.57A.29.29,0,0,0,38.23,19.64Z"/><path d="M36.9,21.64a.29.29,0,0,0,0-.57A.29.29,0,0,0,36.9,21.64Z"/><path d="M36.64,17.83v0a.29.29,0,0,0,.57,0v0A.29.29,0,0,0,36.64,17.83Z"/><path d="M36.28,16.7a.29.29,0,0,0,0,.57A.29.29,0,0,0,36.28,16.7Z"/><path d="M37.74,18.23a.29.29,0,0,0,0,.57A.29.29,0,0,0,37.74,18.23Z"/><path d="M38.73,15.93v0a.29.29,0,0,0,.58,0v0A.29.29,0,0,0,38.73,15.93Z"/><path d="M39.84,15.45a.29.29,0,0,0,0-.57A.29.29,0,0,0,39.84,15.45Z"/><path d="M38.07,16.68a.29.29,0,0,0,0-.57A.29.29,0,0,0,38.07,16.68Z"/><path d="M37.08,16.94a.29.29,0,0,0,0-.57A.29.29,0,0,0,37.08,16.94Z"/><path d="M27.05,18.88a.29.29,0,0,0,0-.57A.29.29,0,0,0,27.05,18.88Z"/><path d="M26.51,19.88a.29.29,0,0,0,0-.57A.29.29,0,0,0,26.51,19.88Z"/><path d="M27.28,19.83a.29.29,0,0,0,0-.57A.29.29,0,0,0,27.28,19.83Z"/><path d="M28.42,18.57l-.05,0c-.32-.17-.61.32-.29.49l.05,0C28.46,19.24,28.75,18.75,28.42,18.57Z"/><path d="M28.22,18.09a.29.29,0,0,0,0-.57A.29.29,0,0,0,28.22,18.09Z"/><path d="M28.38,19.57v0a.29.29,0,0,0-.57,0v0A.29.29,0,0,0,28.38,19.57Z"/><path d="M24.37,20.08v0a.29.29,0,0,0-.58,0v0A.29.29,0,0,0,24.37,20.08Z"/><path d="M24.57,17.57h-.05a.25.25,0,0,0-.26-.19.29.29,0,0,0,0,.57h0a.26.26,0,0,0,.26.19A.29.29,0,0,0,24.57,17.57Z"/><path d="M24.74,18.8a.29.29,0,0,0,0-.57A.29.29,0,0,0,24.74,18.8Z"/><path d="M25.41,18.22a.28.28,0,0,0,.06-.56.29.29,0,0,0-.19-.5.29.29,0,0,0-.06.56A.29.29,0,0,0,25.41,18.22Z"/><path d="M24.08,17.32a.29.29,0,0,0,0-.57A.29.29,0,0,0,24.08,17.32Z"/><path d="M24.36,18.5l0,0a.28.28,0,0,0-.4.4l0,0C24.21,19.16,24.62,18.76,24.36,18.5Z"/><path d="M24.77,19.33a.29.29,0,0,0,0,.57A.29.29,0,0,0,24.77,19.33Z"/><path d="M26.07,18.21a.29.29,0,0,0,0,.57A.29.29,0,0,0,26.07,18.21Z"/><path d="M25.49,19.67a.29.29,0,0,0,0-.57A.29.29,0,0,0,25.49,19.67Z"/><path d="M26.25,17.47h.06a.28.28,0,0,0,.14-.52.24.24,0,0,0-.22-.12.28.28,0,0,0-.24.42A.25.25,0,0,0,26.25,17.47Z"/><path d="M26.87,18a.29.29,0,0,0,0-.58A.29.29,0,0,0,26.87,18Z"/><path d="M27.12,16.68v0a.29.29,0,0,0,.57,0v0A.29.29,0,0,0,27.12,16.68Z"/><path d="M25.56,16.81a.29.29,0,0,0,0-.57A.29.29,0,0,0,25.56,16.81Z"/><path d="M24.9,16.45v0a.29.29,0,0,0-.57,0v0A.29.29,0,0,0,24.9,16.45Z"/><path d="M24.74,15.73a.26.26,0,0,0,.26-.18h0A.29.29,0,0,0,25,15a.26.26,0,0,0-.26.19h0A.29.29,0,0,0,24.74,15.73Z"/><path d="M27.56,18.45a.29.29,0,0,0,0-.58A.29.29,0,0,0,27.56,18.45Z"/><path d="M28.79,16.73a.29.29,0,0,0,0-.57A.29.29,0,0,0,28.79,16.73Z"/><path d="M29.61,17h0a.29.29,0,0,0,0,.58h0A.29.29,0,0,0,29.61,17Z"/><path d="M30.76,17.53a.29.29,0,0,0,0-.58A.29.29,0,0,0,30.76,17.53Z"/><path d="M31.52,17.36a.29.29,0,0,0,0,.57A.29.29,0,0,0,31.52,17.36Z"/><path d="M32.55,16.68v0a.29.29,0,0,0-.57,0v0A.29.29,0,0,0,32.55,16.68Z"/><path d="M30.73,16l0,0a.28.28,0,0,0,.4-.4l0,0C30.88,15.29,30.47,15.7,30.73,16Z"/><path d="M31.24,17h0a.29.29,0,0,0,0-.57h0A.29.29,0,0,0,31.24,17Z"/><path d="M30,16.11a.29.29,0,0,0,0,.57h0a.29.29,0,0,0,0-.57Z"/><path d="M33.85,15.75a.29.29,0,0,0,0,.57A.29.29,0,0,0,33.85,15.75Z"/><path d="M34.13,17.37h0a.29.29,0,0,0,0-.57h0A.29.29,0,0,0,34.13,17.37Z"/><path d="M33,16.34a.29.29,0,0,0,0,.57A.29.29,0,0,0,33,16.34Z"/><path d="M34.82,17.3a.29.29,0,0,0,0-.58A.29.29,0,0,0,34.82,17.3Z"/><path d="M35.67,15.78h0a.29.29,0,0,0,0,.57h0A.29.29,0,0,0,35.67,15.78Z"/><path d="M35.57,17h0a.29.29,0,0,0,0-.57h0A.29.29,0,0,0,35.57,17Z"/><path d="M36,18.16a.29.29,0,0,0,0-.57A.29.29,0,0,0,36,18.16Z"/><path d="M29.05,22.67v0a.29.29,0,0,0-.57,0v0A.29.29,0,0,0,29.05,22.67Z"/><path d="M38.55,21.19a.29.29,0,0,0,0-.57A.29.29,0,0,0,38.55,21.19Z"/><path d="M36.3,20.53a.29.29,0,0,0,0,.57A.29.29,0,0,0,36.3,20.53Z"/><path d="M28.5,20.56a.29.29,0,0,0,0-.57A.29.29,0,0,0,28.5,20.56Z"/><path d="M32.12,17.36v0a.29.29,0,0,0,.58,0v0A.29.29,0,0,0,32.12,17.36Z"/><path d="M26.4,15.92l.06,0c.33-.17,0-.66-.29-.5l-.06,0C25.78,15.59,26.07,16.08,26.4,15.92Z"/><path d="M27.33,15.45a.29.29,0,0,0,0,.57A.29.29,0,0,0,27.33,15.45Z"/><path d="M27.55,14.36l0,0a.28.28,0,0,0,.4.4l0,0C28.22,14.51,27.81,14.1,27.55,14.36Z"/><path d="M26.68,15.08a.29.29,0,0,0,0-.57A.29.29,0,0,0,26.68,15.08Z"/><path d="M25.67,14.49a.29.29,0,0,0,0-.57A.29.29,0,0,0,25.67,14.49Z"/><path d="M27.66,12.28a.29.29,0,0,0,0-.57A.29.29,0,0,0,27.66,12.28Z"/><path d="M27.23,11.27a.29.29,0,0,0,0-.57A.29.29,0,0,0,27.23,11.27Z"/><path d="M29.81,10.91a.29.29,0,0,0,0-.57A.29.29,0,0,0,29.81,10.91Z"/><path d="M27.17,13.09a.29.29,0,0,0,0-.57A.29.29,0,0,0,27.17,13.09Z"/><path d="M30.62,13.42a.29.29,0,0,0,0-.57A.29.29,0,0,0,30.62,13.42Z"/><path d="M29.35,15a.29.29,0,0,0,0-.57A.29.29,0,0,0,29.35,15Z"/><path d="M29.22,13.19a.29.29,0,0,0,0-.57A.29.29,0,0,0,29.22,13.19Z"/><path d="M32.45,14.15a.29.29,0,0,0,0,.57A.29.29,0,0,0,32.45,14.15Z"/><path d="M32.09,15.29a.29.29,0,0,0,0,.57A.29.29,0,0,0,32.09,15.29Z"/><path d="M34.66,15.05a.29.29,0,0,0,0-.57A.29.29,0,0,0,34.66,15.05Z"/><path d="M33.65,13a.29.29,0,0,0,0-.57A.29.29,0,0,0,33.65,13Z"/><path d="M32.58,11.25a.29.29,0,0,0,0,.57A.29.29,0,0,0,32.58,11.25Z"/><path d="M35.54,12.41a.29.29,0,0,0,0-.57A.29.29,0,0,0,35.54,12.41Z"/><path d="M36.29,14.07a.29.29,0,0,0,0-.57A.29.29,0,0,0,36.29,14.07Z"/><path d="M37.43,14.7a.29.29,0,0,0,0,.58A.29.29,0,0,0,37.43,14.7Z"/><path d="M36.85,16.16a.29.29,0,0,0,0-.58A.29.29,0,0,0,36.85,16.16Z"/><path d="M38.9,14.82a.29.29,0,0,0,0-.57A.29.29,0,0,0,38.9,14.82Z"/><path d="M37.82,13.42a.29.29,0,0,0,0-.57A.29.29,0,0,0,37.82,13.42Z"/><path d="M37.4,11.56a.29.29,0,0,0,0-.57A.29.29,0,0,0,37.4,11.56Z"/><path d="M36.75,12.77a.29.29,0,0,0,0-.58A.29.29,0,0,0,36.75,12.77Z"/><path d="M38.67,12.9a.29.29,0,0,0,0-.58A.29.29,0,0,0,38.67,12.9Z"/><path d="M38.57,15.63a.29.29,0,0,0,0-.57A.29.29,0,0,0,38.57,15.63Z"/><path d="M36,15.11a.29.29,0,0,0,0-.57A.29.29,0,0,0,36,15.11Z"/><path d="M34.11,14.17a.29.29,0,0,0,0-.57A.29.29,0,0,0,34.11,14.17Z"/><path d="M33.46,15a.29.29,0,0,0,0,.58A.29.29,0,0,0,33.46,15Z"/><path d="M14.44,38.1l0,0c-.26.26.14.67.4.4l0,0C15.11,38.25,14.7,37.84,14.44,38.1Z"/><path d="M15.05,36.67a.29.29,0,0,0,0,.57A.29.29,0,0,0,15.05,36.67Z"/><path d="M13.69,35.86a.29.29,0,0,0,0,.57A.29.29,0,0,0,13.69,35.86Z"/><path d="M14.21,34a.29.29,0,0,0,0,.57A.29.29,0,0,0,14.21,34Z"/><path d="M12.49,32.72h0a.29.29,0,0,0,0,.57h0A.29.29,0,0,0,12.49,32.72Z"/><path d="M15.12,32a.29.29,0,0,0,0,.57A.29.29,0,0,0,15.12,32Z"/><path d="M15.85,34.79a.29.29,0,0,0,0-.57A.29.29,0,0,0,15.85,34.79Z"/><path d="M16.58,35.5a.29.29,0,0,0,0,.57A.29.29,0,0,0,16.58,35.5Z"/><path d="M18.67,33.87a.29.29,0,0,0,0-.57A.29.29,0,0,0,18.67,33.87Z"/><path d="M17.16,33v0a.29.29,0,0,0-.57,0v0A.29.29,0,0,0,17.16,33Z"/><path d="M9.71,32.68a.29.29,0,0,0,0,.57A.29.29,0,0,0,9.71,32.68Z"/><path d="M11.61,34.55a.29.29,0,0,0,0,.57A.29.29,0,0,0,11.61,34.55Z"/><path d="M14,32.74a.29.29,0,0,0,0-.57A.29.29,0,0,0,14,32.74Z"/><path d="M17.61,34.64a.29.29,0,0,0,0-.57A.29.29,0,0,0,17.61,34.64Z"/><path d="M50.84,37.08h-.1a.29.29,0,0,0,0,.57h.1A.29.29,0,0,0,50.84,37.08Z"/><path d="M53.75,32.65a.29.29,0,0,0,0,.58A.29.29,0,0,0,53.75,32.65Z"/><path d="M33.61,99.15a1.13,1.13,0,1,0-1.43-.72A1.13,1.13,0,0,0,33.61,99.15Z"/></svg>