<svg xmlns="http://www.w3.org/2000/svg" xmlns:xlink="http://www.w3.org/1999/xlink" viewBox="0 0 133.17 18.58"><defs><style>.cls-1{fill:url(#linear-gradient);}.cls-2{fill:#fff;}</style><linearGradient id="linear-gradient" x1="93.52" x2="93.52" y2="18.06" gradientUnits="userSpaceOnUse"><stop offset="0" stop-color="#838bc5"/><stop offset="0.25" stop-color="#868ec6"/><stop offset="0.43" stop-color="#8f96cb"/><stop offset="0.58" stop-color="#9ea5d2"/><stop offset="0.71" stop-color="#b4b9dc"/><stop offset="0.84" stop-color="#d0d3e9"/><stop offset="0.96" stop-color="#f2f3f9"/><stop offset="1" stop-color="#fff"/></linearGradient></defs><title>taomedia_white</title><g id="Layer_2" data-name="Layer 2"><g id="Layer_6" data-name="Layer 6"><path class="cls-1" d="M61.71,18.06,58,5.11h-.12c.18,2.2.26,3.92.26,5.14v7.81h-4.3V.07h6.47L64.1,12.85h.1L67.88.07h6.48v18H69.9V10.18c0-.41,0-.87,0-1.37s.06-1.73.16-3.68H70L66.34,18.06Z"/><path class="cls-1" d="M88.29,18.06H77.61V.07H88.29V4H82.47V6.8h5.39v3.91H82.47V14.1h5.82Z"/><path class="cls-1" d="M106.08,8.69a9.32,9.32,0,0,1-2.48,6.94,9.54,9.54,0,0,1-7,2.43H90.81V.07H97a9.37,9.37,0,0,1,6.68,2.22A8.37,8.37,0,0,1,106.08,8.69Zm-5,.17a5.75,5.75,0,0,0-1-3.67,3.66,3.66,0,0,0-3-1.19H95.67V14.08h1.08A3.91,3.91,0,0,0,100,12.79,6.21,6.21,0,0,0,101,8.86Z"/><path class="cls-1" d="M108.67,18.06V.07h4.89v18Z"/><path class="cls-1" d="M127.85,18.06,127,14.69h-5.85l-.91,3.37h-5.34L120.74,0h6.49l5.94,18.06ZM126,10.71l-.78-3c-.18-.65-.4-1.5-.65-2.54S124.1,3.42,124,3c-.08.41-.22,1.1-.44,2.06s-.7,2.85-1.45,5.68Z"/><path class="cls-2" d="M9.25,18.33H4.39v-14H0v-4H13.63v4H9.25Z"/><path class="cls-2" d="M26.61,18.33,25.73,15H19.88L19,18.33H13.63L19.5.27H26l5.94,18.06ZM24.72,11l-.78-3c-.18-.66-.4-1.5-.66-2.55s-.42-1.78-.51-2.24c-.07.42-.22,1.11-.43,2.07s-.7,2.85-1.45,5.67Z"/><path class="cls-2" d="M50.08,9.31c0,3-.75,5.33-2.23,6.91s-3.66,2.36-6.52,2.36a8.49,8.49,0,0,1-6.49-2.38q-2.27-2.37-2.26-6.91c0-3,.75-5.28,2.24-6.86S38.5.06,41.35.06s5,.78,6.51,2.35S50.08,6.28,50.08,9.31Zm-12.38,0q0,5.22,3.63,5.22a3.09,3.09,0,0,0,2.73-1.27A6.88,6.88,0,0,0,45,9.31a7,7,0,0,0-.91-4,3.07,3.07,0,0,0-2.7-1.28Q37.71,4.05,37.7,9.31Z"/></g></g></svg>