<svg xmlns="http://www.w3.org/2000/svg" xmlns:xlink="http://www.w3.org/1999/xlink" viewBox="0 0 131.99 18.52"><defs><style>.cls-1{fill:url(#TaoGradient);}</style><linearGradient id="TaoGradient" x1="127.06" y1="-25.98" x2="28.01" y2="31.21" gradientUnits="userSpaceOnUse"><stop offset="0" stop-color="#838bc5"/><stop offset="0.16" stop-color="#8188c1"/><stop offset="0.3" stop-color="#7981b6"/><stop offset="0.44" stop-color="#6d73a3"/><stop offset="0.57" stop-color="#5b6189"/><stop offset="0.71" stop-color="#454967"/><stop offset="0.84" stop-color="#292b3e"/><stop offset="0.97" stop-color="#09090d"/><stop offset="1"/></linearGradient></defs><title>taomedia</title><g id="Layer_2" data-name="Layer 2"><g id="Layer_3" data-name="Layer 3"><path class="cls-1" d="M9.25,18.27H4.39v-14H0v-4H13.63v4H9.25Zm17.36,0-.88-3.37H19.88L19,18.27H13.63L19.5.21H26l5.94,18.06Zm-1.89-7.36L23.94,8c-.18-.66-.4-1.5-.66-2.55s-.42-1.78-.51-2.24c-.07.42-.22,1.11-.43,2.07s-.7,2.85-1.45,5.67ZM50.08,9.25c0,3-.75,5.33-2.23,6.91s-3.66,2.36-6.52,2.36a8.49,8.49,0,0,1-6.49-2.38q-2.27-2.37-2.26-6.91c0-3,.75-5.28,2.24-6.86S38.5,0,41.35,0s5,.78,6.51,2.35S50.08,6.22,50.08,9.25Zm-12.38,0q0,5.22,3.63,5.22a3.09,3.09,0,0,0,2.73-1.27A6.88,6.88,0,0,0,45,9.25a7,7,0,0,0-.91-4A3.09,3.09,0,0,0,41.35,4Q37.71,4,37.7,9.25Zm22.83,9L56.85,5.32h-.11c.17,2.2.26,3.92.26,5.14v7.81H52.69V.28h6.48l3.75,12.78H63L66.7.28h6.48v18H68.71V10.38c0-.41,0-.86,0-1.36s.07-1.73.17-3.68h-.11L65.16,18.27Zm26.58,0H76.43V.28H87.11v3.9H81.29V7h5.39v3.9H81.29v3.4h5.82ZM104.9,8.9a9.32,9.32,0,0,1-2.48,6.94,9.55,9.55,0,0,1-7,2.43H89.63V.28h6.22a9.38,9.38,0,0,1,6.69,2.22A8.36,8.36,0,0,1,104.9,8.9Zm-5.05.17a5.69,5.69,0,0,0-1-3.67,3.63,3.63,0,0,0-3-1.19H94.49V14.29h1.08A3.91,3.91,0,0,0,98.82,13,6.22,6.22,0,0,0,99.85,9.07Zm7.64,9.2V.28h4.89v18Zm19.18,0-.88-3.37h-5.85L119,18.27h-5.34L119.56.21H126l6,18.06Zm-1.89-7.36L124,8c-.18-.66-.4-1.5-.66-2.55s-.42-1.78-.51-2.24c-.07.42-.22,1.11-.43,2.07s-.7,2.85-1.45,5.67Z"/></g></g></svg>